<svg width="110" height="96" viewBox="0 0 110 96" fill="none" xmlns="http://www.w3.org/2000/svg">
<path d="M58.662 18.3667H51.265V80.1487H58.662V18.3667Z" stroke="#231F20" stroke-width="3" stroke-miterlimit="10" stroke-linecap="round" stroke-linejoin="round"/>
<path d="M71.397 80.148H38.529C37.6621 80.1472 36.8035 80.3173 36.0024 80.6487C35.2013 80.9801 34.4734 81.4663 33.8603 82.0793C33.2473 82.6923 32.7612 83.4202 32.4298 84.2213C32.0984 85.0224 31.9282 85.881 31.929 86.748H77.974C77.9767 85.0007 77.2853 83.3239 76.052 82.0862C74.8186 80.8486 73.1443 80.1514 71.397 80.148Z" stroke="#231F20" stroke-width="3" stroke-miterlimit="10" stroke-linecap="round" stroke-linejoin="round"/>
<path d="M74.166 7.50786H84.952C86.5466 7.50815 88.1021 8.00225 89.4045 8.92226C90.707 9.84227 91.6927 11.143 92.226 12.6459L94.267 18.3849H15.646L17.687 12.6459C18.22 11.1439 19.2049 9.84364 20.5064 8.9237C21.8079 8.00376 23.3622 7.50918 24.956 7.50786H34.211C34.9705 7.50585 35.706 7.24193 36.2935 6.76062C36.881 6.27932 37.2846 5.6101 37.436 4.86586C37.5958 4.06024 38.03 3.33494 38.6645 2.81346C39.299 2.29198 40.0947 2.00658 40.916 2.00586H67.498C68.3145 2.00584 69.1057 2.28884 69.7369 2.80667C70.3682 3.3245 70.8004 4.04514 70.96 4.84586V4.86586C71.1092 5.60769 71.5095 6.27544 72.0934 6.75666C72.6774 7.23788 73.4093 7.50317 74.166 7.50786Z" stroke="#231F20" stroke-width="3" stroke-miterlimit="10" stroke-linecap="round" stroke-linejoin="round"/>
<path d="M18.944 60.2531H12.33C9.59064 60.252 6.96378 59.1634 5.02676 57.2263C3.08974 55.2893 2.00106 52.6624 2 49.9231V49.2671H29.292V49.9231C29.2909 51.2809 29.0224 52.6251 28.5018 53.8791C27.9812 55.1331 27.2186 56.2723 26.2577 57.2315C25.2968 58.1908 24.1563 58.9513 22.9014 59.4698C21.6465 59.9882 20.3018 60.2544 18.944 60.2531Z" stroke="#231F20" stroke-width="3" stroke-miterlimit="10" stroke-linecap="round" stroke-linejoin="round"/>
<path d="M2 49.2487L15.646 18.3667L29.292 49.2487" stroke="#231F20" stroke-width="3" stroke-miterlimit="10" stroke-linecap="round" stroke-linejoin="round"/>
<path d="M97.597 60.2531H90.983C88.2436 60.252 85.6168 59.1634 83.6798 57.2263C81.7427 55.2893 80.6541 52.6624 80.653 49.9231V49.2671H107.945V49.9231C107.937 52.6634 106.843 55.2888 104.904 57.2248C102.965 59.1608 100.337 60.2497 97.597 60.2531Z" stroke="#231F20" stroke-width="3" stroke-miterlimit="10" stroke-linecap="round" stroke-linejoin="round"/>
<path d="M80.634 49.2487L94.28 18.3667L107.926 49.2487" stroke="#231F20" stroke-width="3" stroke-miterlimit="10" stroke-linecap="round" stroke-linejoin="round"/>
<path d="M49.716 10.186H60.21" stroke="#231F20" stroke-width="3" stroke-miterlimit="10" stroke-linecap="round" stroke-linejoin="round"/>
<path d="M88.177 86.7437H21.75C20.8469 86.7452 19.9812 87.1047 19.3426 87.7433C18.704 88.3819 18.3446 89.2476 18.343 90.1507V90.5877C18.3446 91.4908 18.704 92.3564 19.3426 92.995C19.9812 93.6336 20.8469 93.9931 21.75 93.9947H88.177C89.0801 93.9931 89.9458 93.6336 90.5844 92.995C91.223 92.3564 91.5824 91.4908 91.584 90.5877V90.1507C91.5849 89.703 91.4974 89.2595 91.3265 88.8458C91.1556 88.432 90.9047 88.056 90.5882 87.7395C90.2716 87.4229 89.8957 87.172 89.4819 87.0011C89.0681 86.8302 88.6247 86.7427 88.177 86.7437Z" stroke="#231F20" stroke-width="3" stroke-miterlimit="10" stroke-linecap="round" stroke-linejoin="round"/>
</svg>
