<svg width="38" height="26" viewBox="0 0 38 26" fill="none" xmlns="http://www.w3.org/2000/svg">
<path d="M16.539 17.0579V6.85992H23.89L26.258 17.0599L16.539 17.0579Z" stroke="white" stroke-miterlimit="10" stroke-linecap="round" stroke-linejoin="round"/>
<path d="M2.79501 20.1799H16.539V10.9459H5.91201C5.08761 10.947 4.29735 11.2752 3.71479 11.8585C3.13222 12.4418 2.80501 13.2325 2.80501 14.0569V20.1799H2.79501Z" stroke="white" stroke-miterlimit="10" stroke-linecap="round" stroke-linejoin="round"/>
<path d="M26.258 17.0569H16.539V20.1799H26.258V17.0569Z" stroke="white" stroke-miterlimit="10" stroke-linecap="round" stroke-linejoin="round"/>
<path d="M24.841 10.946L29.897 5.69995" stroke="white" stroke-miterlimit="10" stroke-linecap="round" stroke-linejoin="round"/>
<path d="M26.258 17.0579L31.67 6.85992" stroke="white" stroke-miterlimit="10" stroke-linecap="round" stroke-linejoin="round"/>
<path d="M32.204 6.85394C33.7968 6.85394 35.088 5.56273 35.088 3.96994C35.088 2.37715 33.7968 1.08594 32.204 1.08594C30.6112 1.08594 29.32 2.37715 29.32 3.96994C29.32 5.56273 30.6112 6.85394 32.204 6.85394Z" stroke="white" stroke-miterlimit="10" stroke-linecap="round" stroke-linejoin="round"/>
<path d="M32.565 6.82892L33.449 16.4989" stroke="white" stroke-miterlimit="10" stroke-linecap="round" stroke-linejoin="round"/>
<path d="M35.087 3.96991V16.4989" stroke="white" stroke-miterlimit="10" stroke-linecap="round" stroke-linejoin="round"/>
<path d="M31.092 23.616V16.499H36.927C36.933 16.499 38.166 22.972 31.092 23.616ZM31.092 23.616C30.718 23.6526 30.318 23.671 29.892 23.671" stroke="white" stroke-miterlimit="10" stroke-linecap="round" stroke-linejoin="round"/>
<path d="M27.694 22.61C27.694 23.2544 27.438 23.8725 26.9823 24.3282C26.5266 24.784 25.9085 25.04 25.264 25.04H3.41501C2.7792 25.0271 2.17379 24.7654 1.72869 24.3112C1.2836 23.857 1.0343 23.2464 1.0343 22.6105C1.0343 21.9745 1.2836 21.3639 1.72869 20.9097C2.17379 20.4555 2.7792 20.1939 3.41501 20.181H25.264C25.5831 20.1806 25.8992 20.2431 26.1942 20.365C26.4891 20.487 26.7571 20.6658 26.9828 20.8915C27.2085 21.1171 27.3875 21.385 27.5096 21.6799C27.6316 21.9748 27.6943 22.2908 27.694 22.61Z" stroke="white" stroke-miterlimit="10" stroke-linecap="round" stroke-linejoin="round"/>
<path d="M2.94801 22.6099H25.724" stroke="white" stroke-miterlimit="10" stroke-linecap="round" stroke-linejoin="round"/>
<path d="M21.957 10.572L22.816 13.652" stroke="white" stroke-miterlimit="10" stroke-linecap="round" stroke-linejoin="round"/>
<path d="M19.22 9.67596L20.331 13.652" stroke="white" stroke-miterlimit="10" stroke-linecap="round" stroke-linejoin="round"/>
</svg>
