<svg width="48" height="47" viewBox="0 0 48 47" fill="none" xmlns="http://www.w3.org/2000/svg">
<path d="M4.70696 37.0823C3.8031 37.0823 2.91954 37.3503 2.16801 37.8525C1.41648 38.3546 0.830728 39.0684 0.484835 39.9034C0.138943 40.7385 0.0484418 41.6573 0.224776 42.5438C0.401111 43.4303 0.836361 44.2446 1.47549 44.8838C2.11461 45.5229 2.92891 45.9581 3.8154 46.1345C4.7019 46.3108 5.62077 46.2203 6.45583 45.8744C7.29089 45.5285 8.00462 44.9428 8.50678 44.1912C9.00894 43.4397 9.27697 42.5561 9.27697 41.6523C9.27564 40.4406 8.79374 39.279 7.93698 38.4223C7.08023 37.5655 5.9186 37.0836 4.70696 37.0823ZM4.70696 45.7593C3.89468 45.7593 3.10063 45.5184 2.42524 45.0671C1.74985 44.6158 1.22344 43.9744 0.912592 43.224C0.601743 42.4735 0.52041 41.6477 0.67888 40.851C0.837349 40.0544 1.2285 39.3226 1.80288 38.7482C2.37725 38.1738 3.10905 37.7827 3.90573 37.6242C4.70241 37.4657 5.52819 37.5471 6.27865 37.8579C7.0291 38.1688 7.67053 38.6952 8.12181 39.3706C8.57309 40.046 8.81396 40.84 8.81396 41.6523C8.81264 42.7411 8.37952 43.785 7.60959 44.5549C6.83967 45.3248 5.7958 45.758 4.70696 45.7593Z" stroke="#282828" stroke-width="0.5"/>
<path d="M4.70995 39.3662C4.25782 39.3662 3.81585 39.5003 3.43992 39.7515C3.06399 40.0027 2.77098 40.3597 2.59796 40.7774C2.42494 41.1951 2.37967 41.6547 2.46788 42.0982C2.55608 42.5416 2.7738 42.9489 3.09351 43.2686C3.41321 43.5883 3.82053 43.8061 4.26397 43.8943C4.70742 43.9825 5.16705 43.9372 5.58477 43.7642C6.00248 43.5912 6.3595 43.2982 6.61069 42.9222C6.86188 42.5463 6.99595 42.1043 6.99595 41.6522C6.99516 41.0462 6.75406 40.4652 6.32552 40.0366C5.89698 39.6081 5.31599 39.367 4.70995 39.3662ZM4.70995 43.4752C4.3494 43.4752 3.99694 43.3683 3.69715 43.168C3.39736 42.9677 3.1637 42.6829 3.02572 42.3498C2.88774 42.0167 2.85164 41.6502 2.92198 41.2966C2.99232 40.9429 3.16594 40.6181 3.4209 40.3631C3.67585 40.1082 4.00067 39.9346 4.3543 39.8642C4.70793 39.7939 5.07447 39.83 5.40758 39.968C5.74069 40.106 6.02541 40.3396 6.22572 40.6394C6.42603 40.9392 6.53295 41.2917 6.53295 41.6522C6.53242 42.1355 6.34019 42.5989 5.99842 42.9407C5.65666 43.2824 5.19328 43.4747 4.70995 43.4752Z" stroke="#282828" stroke-width="0.5"/>
<path d="M28.714 37.0823C27.8101 37.0823 26.9266 37.3503 26.175 37.8525C25.4235 38.3546 24.8377 39.0684 24.4919 39.9034C24.146 40.7385 24.0555 41.6573 24.2318 42.5438C24.4081 43.4303 24.8434 44.2446 25.4825 44.8838C26.1216 45.5229 26.9359 45.9581 27.8224 46.1345C28.7089 46.3108 29.6278 46.2203 30.4629 45.8744C31.2979 45.5285 32.0116 44.9428 32.5138 44.1912C33.016 43.4397 33.284 42.5561 33.284 41.6523C33.2827 40.4406 32.8008 39.279 31.944 38.4223C31.0872 37.5655 29.9256 37.0836 28.714 37.0823ZM28.714 45.7593C27.9017 45.7593 27.1076 45.5184 26.4323 45.0671C25.7569 44.6158 25.2305 43.9744 24.9196 43.224C24.6088 42.4735 24.5274 41.6477 24.6859 40.851C24.8444 40.0544 25.2355 39.3226 25.8099 38.7482C26.3843 38.1738 27.1161 37.7827 27.9127 37.6242C28.7094 37.4657 29.5352 37.5471 30.2857 37.8579C31.0361 38.1688 31.6775 38.6952 32.1288 39.3706C32.5801 40.046 32.821 40.84 32.821 41.6523C32.8197 42.7411 32.3865 43.785 31.6166 44.5549C30.8467 45.3248 29.8028 45.758 28.714 45.7593Z" stroke="#282828" stroke-width="0.5"/>
<path d="M28.7129 39.3662C28.2608 39.3662 27.8188 39.5003 27.4429 39.7515C27.067 40.0027 26.774 40.3597 26.6009 40.7774C26.4279 41.1951 26.3827 41.6547 26.4709 42.0982C26.5591 42.5416 26.7768 42.9489 27.0965 43.2686C27.4162 43.5883 27.8235 43.8061 28.267 43.8943C28.7104 43.9825 29.17 43.9372 29.5878 43.7642C30.0055 43.5912 30.3625 43.2982 30.6137 42.9222C30.8649 42.5463 30.9989 42.1043 30.9989 41.6522C30.9982 41.0462 30.757 40.4652 30.3285 40.0366C29.9 39.6081 29.319 39.367 28.7129 39.3662ZM28.7129 43.4752C28.3524 43.4752 27.9999 43.3683 27.7001 43.168C27.4003 42.9677 27.1667 42.6829 27.0287 42.3498C26.8907 42.0167 26.8546 41.6502 26.925 41.2966C26.9953 40.9429 27.1689 40.6181 27.4239 40.3631C27.6788 40.1082 28.0037 39.9346 28.3573 39.8642C28.7109 39.7939 29.0775 39.83 29.4106 39.968C29.7437 40.106 30.0284 40.3396 30.2287 40.6394C30.429 40.9392 30.5359 41.2917 30.5359 41.6522C30.5354 42.1355 30.3432 42.5989 30.0014 42.9407C29.6597 43.2824 29.1963 43.4747 28.7129 43.4752Z" stroke="#282828" stroke-width="0.5"/>
<path d="M46.837 0.180176H37.546C37.4848 0.180439 37.4262 0.204861 37.3829 0.248125C37.3397 0.291389 37.3152 0.349992 37.315 0.411176V9.41118H35.959L34.859 7.36918C35.0791 7.19719 35.2599 6.98021 35.3894 6.73275C35.519 6.48528 35.5942 6.21303 35.6101 5.93417C35.626 5.65531 35.5822 5.37626 35.4816 5.11568C35.381 4.8551 35.226 4.61898 35.0269 4.4231C34.8278 4.22721 34.5892 4.07608 34.327 3.97979C34.0648 3.88349 33.7851 3.84426 33.5065 3.86472C33.228 3.88517 32.957 3.96484 32.7116 4.09839C32.4663 4.23194 32.2523 4.41631 32.084 4.63918L13.761 9.41718L13.411 9.03418C13.3892 9.01051 13.3628 8.99162 13.3334 8.97871C13.3039 8.9658 13.2721 8.95915 13.24 8.95918H10.546C10.5156 8.95918 10.4856 8.96515 10.4576 8.97676C10.4295 8.98837 10.4041 9.00538 10.3826 9.02683C10.3612 9.04828 10.3442 9.07375 10.3326 9.10178C10.321 9.1298 10.315 9.15984 10.315 9.19018V16.1952C10.315 16.2565 10.3393 16.3154 10.3826 16.3589C10.4259 16.4024 10.4846 16.4269 10.546 16.4272H13.203C13.2437 16.427 13.2836 16.4161 13.3187 16.3956C13.3538 16.375 13.3829 16.3456 13.403 16.3102L13.643 15.8912L25.843 20.5912C25.8305 20.6201 25.824 20.6512 25.824 20.6827C25.824 20.7142 25.8305 20.7453 25.843 20.7742L13.882 25.3802H10.49C10.1394 25.3983 9.80723 25.5428 9.55498 25.7869C9.30274 26.0311 9.14749 26.3584 9.11798 26.7082L7.28798 33.9612H4.70597C4.64462 33.9614 4.58586 33.986 4.54257 34.0295C4.49928 34.073 4.47498 34.1318 4.47498 34.1932V35.8522C4.47498 35.9136 4.49937 35.9725 4.54278 36.0159C4.58619 36.0593 4.64508 36.0837 4.70648 36.0837C4.76787 36.0837 4.82676 36.0593 4.87017 36.0159C4.91359 35.9725 4.93797 35.9136 4.93797 35.8522V34.4282H26.284L27.214 36.1132C27.2274 36.1421 27.2466 36.1679 27.2704 36.1891C27.2942 36.2102 27.3221 36.2263 27.3524 36.2362C27.3827 36.2461 27.4147 36.2496 27.4464 36.2466C27.4781 36.2436 27.5089 36.2341 27.5368 36.2187C27.5647 36.2032 27.5891 36.1823 27.6085 36.157C27.6279 36.1317 27.6419 36.1027 27.6496 36.0718C27.6573 36.0409 27.6586 36.0087 27.6533 35.9773C27.648 35.9459 27.6363 35.9159 27.619 35.8892L26.619 34.0892C26.5992 34.0533 26.5703 34.0233 26.5352 34.0022C26.5 33.9811 26.4599 33.9697 26.419 33.9692H21.874V32.2402C21.8739 32.2096 21.8678 32.1794 21.856 32.1512L20.113 27.9802L28.182 24.8712L28.33 25.1302C28.3501 25.1656 28.3791 25.195 28.4142 25.2156C28.4494 25.2361 28.4893 25.247 28.53 25.2472H31.187C31.2482 25.2472 31.307 25.2228 31.3503 25.1795C31.3936 25.1362 31.418 25.0774 31.418 25.0162V16.3502C31.418 16.2889 31.3936 16.2302 31.3503 16.1868C31.307 16.1435 31.2482 16.1192 31.187 16.1192H28.531C28.4903 16.1193 28.4504 16.1302 28.4152 16.1508C28.3801 16.1713 28.3511 16.2008 28.331 16.2362L28.183 16.4952L16.157 11.8602L32.707 7.54418C32.9743 7.69168 33.2726 7.77441 33.5777 7.78569C33.8829 7.79698 34.1864 7.73652 34.464 7.60918L35.617 9.75218C35.6365 9.78843 35.6653 9.81883 35.7004 9.84027C35.7356 9.86171 35.7758 9.87342 35.817 9.87418H37.311V11.1322C37.311 11.1934 37.3353 11.2522 37.3786 11.2955C37.422 11.3388 37.4807 11.3632 37.542 11.3632H46.833C46.8942 11.3632 46.953 11.3388 46.9963 11.2955C47.0396 11.2522 47.064 11.1934 47.064 11.1322V0.411176C47.0637 0.350675 47.0399 0.292665 46.9975 0.249512C46.955 0.20636 46.8975 0.181479 46.837 0.180176ZM31.791 5.19318C31.6744 5.53451 31.6548 5.90147 31.7342 6.25329C31.8137 6.60512 31.9891 6.92803 32.241 7.18618L15.672 11.5082L14.114 9.80818L31.791 5.19318ZM13.072 15.9642H10.781V9.42218H13.138L15.399 11.8952L13.072 15.9642ZM21.411 33.9642H7.76598L9.56598 26.8192C9.56598 26.8142 9.56598 26.8092 9.56598 26.8042C9.65098 26.3422 9.93698 25.8482 10.484 25.8482H18.713L21.405 32.2882L21.411 33.9642ZM19.935 27.5542L19.088 25.5272C19.0703 25.4851 19.0405 25.4491 19.0024 25.4239C18.9643 25.3986 18.9197 25.3851 18.874 25.3852H15.174L26.074 21.1852L27.946 24.4652L19.935 27.5542ZM28.666 16.5802H30.957V24.7802H28.666L26.321 20.6802L28.666 16.5802ZM26.073 20.1802L13.88 15.4802L15.757 12.1972L27.946 16.9002L26.073 20.1802ZM32.146 5.82118C32.146 5.5245 32.2339 5.23449 32.3988 4.98782C32.5636 4.74115 32.7979 4.54889 33.0719 4.43536C33.346 4.32183 33.6476 4.29212 33.9386 4.35C34.2296 4.40788 34.4969 4.55074 34.7066 4.76052C34.9164 4.97029 35.0593 5.23757 35.1172 5.52854C35.175 5.81951 35.1453 6.12111 35.0318 6.3952C34.9183 6.66929 34.726 6.90356 34.4793 7.06838C34.2327 7.2332 33.9426 7.32118 33.646 7.32118C33.2482 7.32118 32.8666 7.16314 32.5853 6.88184C32.304 6.60053 32.146 6.219 32.146 5.82118ZM42.423 4.79018H46.606V8.47418H42.423V4.79018ZM37.778 4.79018H41.96V8.47418H37.778V4.79018ZM37.778 0.643176H41.96V4.32718H37.778V0.643176ZM46.606 4.32718H42.423V0.643176H46.606V4.32718ZM46.606 10.9002H37.778V8.93718H46.606V10.9002Z" stroke="#282828" stroke-width="0.5"/>
<path d="M23.1309 42.9841H10.2889C10.2275 42.9841 10.1687 43.0085 10.1252 43.0519C10.0818 43.0953 10.0574 43.1542 10.0574 43.2156C10.0574 43.277 10.0818 43.3359 10.1252 43.3793C10.1687 43.4227 10.2275 43.4471 10.2889 43.4471H23.1309C23.1923 43.4471 23.2512 43.4227 23.2946 43.3793C23.338 43.3359 23.3624 43.277 23.3624 43.2156C23.3624 43.1542 23.338 43.0953 23.2946 43.0519C23.2512 43.0085 23.1923 42.9841 23.1309 42.9841Z" stroke="#282828" stroke-width="0.5"/>
<path d="M12.143 27.4952H16.969C17.0304 27.4952 17.0893 27.4708 17.1327 27.4274C17.1761 27.384 17.2005 27.3251 17.2005 27.2637C17.2005 27.2023 17.1761 27.1434 17.1327 27.1C17.0893 27.0566 17.0304 27.0322 16.969 27.0322H11.911C11.8497 27.0322 11.791 27.0566 11.7477 27.0999C11.7043 27.1432 11.68 27.2019 11.68 27.2632V32.1362C11.6803 32.1974 11.7047 32.256 11.7479 32.2993C11.7912 32.3425 11.8498 32.367 11.911 32.3672H19.36C19.3917 32.3693 19.4234 32.3649 19.4533 32.3542C19.4832 32.3435 19.5106 32.3268 19.5338 32.3051C19.557 32.2834 19.5754 32.2571 19.5881 32.228C19.6007 32.1989 19.6072 32.1675 19.6072 32.1357C19.6072 32.104 19.6007 32.0726 19.5881 32.0434C19.5754 32.0143 19.557 31.9881 19.5338 31.9664C19.5106 31.9447 19.4832 31.928 19.4533 31.9173C19.4234 31.9066 19.3917 31.9021 19.36 31.9042H12.143V27.4952Z" stroke="#282828" stroke-width="0.5"/>
<path d="M13.166 40.7232C13.166 40.7845 13.1903 40.8432 13.2336 40.8866C13.2769 40.9299 13.3357 40.9542 13.397 40.9542H15.512C15.5733 40.9542 15.6322 40.9298 15.6756 40.8864C15.7191 40.843 15.7435 40.7841 15.7435 40.7227C15.7435 40.6613 15.7191 40.6024 15.6756 40.559C15.6322 40.5156 15.5733 40.4912 15.512 40.4912H13.397C13.3357 40.4912 13.2769 40.5155 13.2336 40.5589C13.1903 40.6022 13.166 40.6619 13.166 40.7232Z" stroke="#282828" stroke-width="0.5"/>
<path d="M15.6159 39.1322C15.6773 39.1322 15.7362 39.1078 15.7796 39.0644C15.823 39.021 15.8474 38.9621 15.8474 38.9007C15.8474 38.8393 15.823 38.7804 15.7796 38.737C15.7362 38.6936 15.6773 38.6692 15.6159 38.6692H13.4969C13.4355 38.6692 13.3767 38.6936 13.3332 38.737C13.2898 38.7804 13.2654 38.8393 13.2654 38.9007C13.2654 38.9621 13.2898 39.021 13.3332 39.0644C13.3767 39.1078 13.4355 39.1322 13.4969 39.1322H15.6159Z" stroke="#282828" stroke-width="0.5"/>
<path d="M33.653 5.3811C33.5659 5.3811 33.4809 5.40691 33.4085 5.45526C33.3361 5.50361 33.2797 5.57232 33.2464 5.65272C33.2131 5.73312 33.2044 5.82159 33.2214 5.90694C33.2384 5.99229 33.2803 6.0707 33.3418 6.13223C33.4034 6.19377 33.4818 6.23567 33.5671 6.25265C33.6525 6.26963 33.7409 6.26091 33.8213 6.22761C33.9017 6.19431 33.9705 6.13791 34.0188 6.06555C34.0671 5.9932 34.0929 5.90813 34.0929 5.8211C34.0929 5.76332 34.0816 5.70611 34.0594 5.65272C34.0373 5.59934 34.0049 5.55083 33.9641 5.50998C33.9232 5.46912 33.8747 5.43671 33.8213 5.4146C33.768 5.39248 33.7107 5.3811 33.653 5.3811Z" stroke="#282828" stroke-width="0.5"/>
<path d="M12.259 11.3262C12.1977 11.3262 12.1389 11.3505 12.0956 11.3938C12.0523 11.4372 12.028 11.4959 12.028 11.5572V13.6962C12.028 13.7576 12.0523 13.8165 12.0958 13.8599C12.1392 13.9033 12.1981 13.9277 12.2595 13.9277C12.3209 13.9277 12.3797 13.9033 12.4231 13.8599C12.4666 13.8165 12.491 13.7576 12.491 13.6962V11.5572C12.491 11.4959 12.4666 11.4372 12.4233 11.3938C12.38 11.3505 12.3202 11.3262 12.259 11.3262Z" stroke="#282828" stroke-width="0.5"/>
<path d="M29.355 22.4951C29.4162 22.4951 29.475 22.4708 29.5183 22.4275C29.5616 22.3841 29.586 22.3254 29.586 22.2641V19.1011C29.586 19.0397 29.5616 18.9808 29.5182 18.9374C29.4748 18.894 29.4159 18.8696 29.3545 18.8696C29.2931 18.8696 29.2342 18.894 29.1908 18.9374C29.1474 18.9808 29.123 19.0397 29.123 19.1011V22.2631C29.123 22.3244 29.1473 22.3831 29.1906 22.4265C29.234 22.4698 29.2927 22.4941 29.354 22.4941" stroke="#282828" stroke-width="0.5"/>
</svg>
