<svg width="60" height="60" viewBox="0 0 60 60" fill="none" xmlns="http://www.w3.org/2000/svg">
<path d="M50 0.5H10C4.75329 0.5 0.5 4.75329 0.5 10V50C0.5 55.2467 4.75329 59.5 10 59.5H50C55.2467 59.5 59.5 55.2467 59.5 50V10C59.5 4.75329 55.2467 0.5 50 0.5Z" stroke="#282828"/>
<path d="M45 5H15C9.47715 5 5 9.47715 5 15V45C5 50.5228 9.47715 55 15 55H45C50.5228 55 55 50.5228 55 45V15C55 9.47715 50.5228 5 45 5Z" fill="#E8A437"/>
<path d="M10.247 28.6239L15.905 19.8128C16.0974 19.5146 16.4004 19.305 16.7473 19.23C17.0941 19.155 17.4566 19.2207 17.755 19.4129L21.676 21.9308C21.9743 22.1232 22.1839 22.4262 22.2589 22.7731C22.3339 23.12 22.2682 23.4824 22.076 23.7808L16.421 32.5918C16.2286 32.8901 15.9257 33.0997 15.5788 33.1747C15.2319 33.2498 14.8695 33.184 14.571 32.9919L10.648 30.4738C10.3521 30.2795 10.1444 29.9768 10.0694 29.6308C9.99437 29.2849 10.0582 28.9233 10.247 28.6239Z" stroke="white" stroke-miterlimit="10" stroke-linecap="round" stroke-linejoin="round"/>
<path d="M30.461 28.7639L37.188 32.8319C37.3102 32.9055 37.4163 33.003 37.5 33.1186C37.5836 33.2341 37.6431 33.3654 37.675 33.5044C37.7068 33.6435 37.7103 33.7876 37.6852 33.928C37.6601 34.0684 37.607 34.2024 37.529 34.3219L37.015 35.1219C36.8655 35.3507 36.6344 35.5139 36.3687 35.5784C36.1031 35.6428 35.8228 35.6037 35.585 35.4689L27.985 31.1199" stroke="white" stroke-miterlimit="10" stroke-linecap="round" stroke-linejoin="round"/>
<path d="M30.013 25.1829L22.505 24.5219" stroke="white" stroke-miterlimit="10" stroke-linecap="round" stroke-linejoin="round"/>
<path d="M27.381 34.8088L32.064 37.4938C32.4892 37.7375 32.9908 37.8111 33.4681 37.6998C33.9453 37.5885 34.3626 37.3005 34.636 36.8938L35.585 35.4708" stroke="white" stroke-miterlimit="10" stroke-linecap="round" stroke-linejoin="round"/>
<path d="M25.725 37.3948L29.406 39.5458C29.7563 39.7511 30.1725 39.8128 30.5673 39.7181C30.9621 39.6234 31.3049 39.3796 31.524 39.0378L32.392 37.6888" stroke="white" stroke-miterlimit="10" stroke-linecap="round" stroke-linejoin="round"/>
<path d="M16.426 32.5919L17.368 34.2749C17.9622 35.337 18.8088 36.2365 19.833 36.8939L25.344 40.4339C25.5993 40.598 25.8844 40.7102 26.183 40.7641C26.4817 40.8179 26.788 40.8125 27.0845 40.7479C27.3811 40.6834 27.662 40.561 27.9112 40.3879C28.1604 40.2148 28.3731 39.9942 28.537 39.7389L28.784 39.3579" stroke="white" stroke-miterlimit="10" stroke-linecap="round" stroke-linejoin="round"/>
<path d="M19.719 20.6678L17.381 24.3088" stroke="white" stroke-miterlimit="10" stroke-linecap="round" stroke-linejoin="round"/>
<path d="M49.753 28.6899L44.095 19.8899C43.9026 19.5916 43.5997 19.382 43.2528 19.307C42.9059 19.232 42.5434 19.2978 42.245 19.4899L38.324 22.0079C38.0258 22.2003 37.8161 22.5032 37.7411 22.8501C37.6661 23.197 37.7319 23.5595 37.924 23.8579L43.582 32.6689C43.7744 32.9671 44.0774 33.1768 44.4242 33.2518C44.7711 33.3268 45.1336 33.261 45.432 33.0689L49.353 30.5509C49.6499 30.3547 49.8581 30.0499 49.9329 29.702C50.0077 29.3541 49.9431 28.9907 49.753 28.6899Z" stroke="white" stroke-miterlimit="10" stroke-linecap="round" stroke-linejoin="round"/>
<path d="M37.495 24.5958L30.007 25.1858C30.007 25.1858 26.433 25.1058 26.293 26.8358C26.153 28.5658 29.065 27.9358 30.461 28.7728" stroke="white" stroke-miterlimit="10" stroke-linecap="round" stroke-linejoin="round"/>
<path d="M43.574 32.6578L42.632 34.3408C42.0379 35.403 41.1913 36.3025 40.167 36.9598L34.509 40.1528C32.398 41.0528 30.809 40.8208 30.12 39.7528" stroke="white" stroke-miterlimit="10" stroke-linecap="round" stroke-linejoin="round"/>
<path d="M40.281 20.7408L42.619 24.3818" stroke="white" stroke-miterlimit="10" stroke-linecap="round" stroke-linejoin="round"/>
<path d="M31.897 29.6318C31.897 29.6318 36.125 31.5158 38.083 29.9388" stroke="white" stroke-miterlimit="10" stroke-linecap="round" stroke-linejoin="round"/>
</svg>
