<svg width="42" height="24" viewBox="0 0 42 24" fill="none" xmlns="http://www.w3.org/2000/svg">
<path d="M1.24704 10.6239L6.90504 1.81285C7.09743 1.51461 7.40036 1.30496 7.74725 1.22995C8.09414 1.15495 8.45662 1.22073 8.75504 1.41285L12.676 3.93085C12.9743 4.12324 13.1839 4.42617 13.2589 4.77306C13.3339 5.11996 13.2682 5.48243 13.076 5.78085L7.42104 14.5918C7.22865 14.8901 6.92572 15.0997 6.57883 15.1747C6.23193 15.2498 5.86945 15.184 5.57104 14.9919L1.64804 12.4738C1.35215 12.2795 1.14435 11.9768 1.06936 11.6308C0.99437 11.2849 1.05817 10.9233 1.24704 10.6239Z" stroke="white" stroke-miterlimit="10" stroke-linecap="round" stroke-linejoin="round"/>
<path d="M21.461 10.7639L28.188 14.8319C28.3102 14.9055 28.4163 15.003 28.5 15.1186C28.5836 15.2341 28.6431 15.3654 28.675 15.5044C28.7068 15.6435 28.7103 15.7876 28.6852 15.928C28.6601 16.0684 28.607 16.2024 28.529 16.3219L28.015 17.1219C27.8655 17.3507 27.6344 17.5139 27.3687 17.5784C27.1031 17.6428 26.8228 17.6037 26.585 17.4689L18.985 13.1199" stroke="white" stroke-miterlimit="10" stroke-linecap="round" stroke-linejoin="round"/>
<path d="M21.013 7.18285L13.505 6.52185" stroke="white" stroke-miterlimit="10" stroke-linecap="round" stroke-linejoin="round"/>
<path d="M18.381 16.8088L23.064 19.4938C23.4892 19.7375 23.9908 19.8111 24.4681 19.6998C24.9453 19.5885 25.3626 19.3005 25.636 18.8938L26.585 17.4708" stroke="white" stroke-miterlimit="10" stroke-linecap="round" stroke-linejoin="round"/>
<path d="M16.725 19.3948L20.406 21.5458C20.7563 21.7511 21.1725 21.8128 21.5673 21.7181C21.9621 21.6234 22.3049 21.3796 22.524 21.0378L23.392 19.6888" stroke="white" stroke-miterlimit="10" stroke-linecap="round" stroke-linejoin="round"/>
<path d="M7.42604 14.5919L8.36804 16.2749C8.96216 17.337 9.80876 18.2365 10.833 18.8939L16.344 22.4339C16.5993 22.598 16.8844 22.7102 17.183 22.7641C17.4817 22.8179 17.788 22.8125 18.0845 22.7479C18.3811 22.6834 18.662 22.561 18.9112 22.3879C19.1604 22.2148 19.3731 21.9942 19.537 21.7389L19.784 21.3579" stroke="white" stroke-miterlimit="10" stroke-linecap="round" stroke-linejoin="round"/>
<path d="M10.719 2.66785L8.38104 6.30885" stroke="white" stroke-miterlimit="10" stroke-linecap="round" stroke-linejoin="round"/>
<path d="M40.753 10.6899L35.095 1.88988C34.9026 1.59164 34.5997 1.38198 34.2528 1.30698C33.9059 1.23198 33.5434 1.29776 33.245 1.48988L29.324 4.00788C29.0258 4.20027 28.8161 4.5032 28.7411 4.85009C28.6661 5.19698 28.7319 5.55946 28.924 5.85788L34.582 14.6689C34.7744 14.9671 35.0774 15.1768 35.4242 15.2518C35.7711 15.3268 36.1336 15.261 36.432 15.0689L40.353 12.5509C40.6499 12.3547 40.8581 12.0499 40.9329 11.702C41.0077 11.3541 40.9431 10.9907 40.753 10.6899Z" stroke="white" stroke-miterlimit="10" stroke-linecap="round" stroke-linejoin="round"/>
<path d="M28.495 6.59583L21.007 7.18583C21.007 7.18583 17.433 7.10583 17.293 8.83583C17.153 10.5658 20.065 9.93583 21.461 10.7728" stroke="white" stroke-miterlimit="10" stroke-linecap="round" stroke-linejoin="round"/>
<path d="M34.574 14.6578L33.632 16.3408C33.0379 17.403 32.1913 18.3025 31.167 18.9598L25.509 22.1528C23.398 23.0528 21.809 22.8208 21.12 21.7528" stroke="white" stroke-miterlimit="10" stroke-linecap="round" stroke-linejoin="round"/>
<path d="M31.281 2.74084L33.619 6.38184" stroke="white" stroke-miterlimit="10" stroke-linecap="round" stroke-linejoin="round"/>
<path d="M22.897 11.6318C22.897 11.6318 27.125 13.5158 29.083 11.9388" stroke="white" stroke-miterlimit="10" stroke-linecap="round" stroke-linejoin="round"/>
</svg>
