 <svg
                xmlns="http://www.w3.org/2000/svg"
                width="2rem"
                height="2rem"
                class="mr-2"
                viewBox="0 0 37 27"
                fill="none"
              >
                <path
                  d="M32.169 25.724H11.804C11.3621 25.7243 10.9244 25.6374 10.516 25.4684C10.1076 25.2994 9.73655 25.0515 9.42403 24.739C9.1115 24.4265 8.86365 24.0554 8.69464 23.6471C8.52562 23.2387 8.43876 22.801 8.43903 22.359C8.43876 21.917 8.52562 21.4794 8.69464 21.071C8.86365 20.6626 9.1115 20.2915 9.42403 19.979C9.73655 19.6665 10.1076 19.4186 10.516 19.2496C10.9244 19.0806 11.3621 18.9938 11.804 18.994H32.169C32.611 18.9938 33.0487 19.0806 33.4571 19.2496C33.8654 19.4186 34.2365 19.6665 34.549 19.979C34.8615 20.2915 35.1094 20.6626 35.2784 21.071C35.4474 21.4794 35.5343 21.917 35.534 22.359C35.5335 23.2513 35.1788 24.1069 34.5479 24.7379C33.9169 25.3688 33.0613 25.7235 32.169 25.724Z"
                  stroke="#231F20"
                  stroke-miterlimit="10"
                  stroke-linecap="round"
                  stroke-linejoin="round"
                />
                <path
                  d="M11.804 25.724H1C1 25.724 4.935 24.056 4.935 17.087V12.071C4.9353 11.9465 4.97174 11.8248 5.03991 11.7206C5.10807 11.6163 5.20503 11.5342 5.319 11.484L7.905 10.351C8.00259 10.3074 8.10958 10.2889 8.21617 10.2973C8.32276 10.3057 8.42554 10.3407 8.51509 10.3991C8.60465 10.4575 8.67812 10.5374 8.72876 10.6316C8.77941 10.7257 8.80563 10.8311 8.805 10.938V20.818"
                  stroke="#231F20"
                  stroke-miterlimit="10"
                  stroke-linecap="round"
                  stroke-linejoin="round"
                />
                <path
                  d="M30.658 16.291H13.879V18.994H30.658V16.291Z"
                  stroke="#231F20"
                  stroke-miterlimit="10"
                  stroke-linecap="round"
                  stroke-linejoin="round"
                />
                <path
                  d="M18.448 7.149H29.218V2.935"
                  stroke="#231F20"
                  stroke-miterlimit="10"
                  stroke-linecap="round"
                  stroke-linejoin="round"
                />
                <path
                  d="M8.80499 13.159H11.804"
                  stroke="#231F20"
                  stroke-miterlimit="10"
                  stroke-linecap="round"
                  stroke-linejoin="round"
                />
                <path
                  d="M13.659 22.26C13.659 22.567 13.568 22.867 13.3974 23.1223C13.2269 23.3775 12.9845 23.5764 12.7009 23.6939C12.4173 23.8113 12.1053 23.8421 11.8042 23.7822C11.5032 23.7223 11.2266 23.5745 11.0096 23.3574C10.7925 23.1404 10.6447 22.8638 10.5848 22.5628C10.5249 22.2617 10.5557 21.9497 10.6731 21.6661C10.7906 21.3825 10.9895 21.1401 11.2447 20.9696C11.5 20.799 11.8 20.708 12.107 20.708C12.5186 20.708 12.9134 20.8715 13.2044 21.1626C13.4955 21.4536 13.659 21.8484 13.659 22.26Z"
                  stroke="#231F20"
                  stroke-miterlimit="10"
                  stroke-linecap="round"
                  stroke-linejoin="round"
                />
                <path
                  d="M33.501 22.26C33.501 22.567 33.4099 22.867 33.2394 23.1223C33.0689 23.3775 32.8265 23.5764 32.5429 23.6939C32.2593 23.8113 31.9473 23.8421 31.6462 23.7822C31.3451 23.7223 31.0686 23.5745 30.8515 23.3574C30.6345 23.1404 30.4867 22.8638 30.4268 22.5628C30.3669 22.2617 30.3976 21.9497 30.5151 21.6661C30.6326 21.3825 30.8315 21.1401 31.0867 20.9696C31.342 20.799 31.642 20.708 31.949 20.708C32.1528 20.7079 32.3547 20.7479 32.5431 20.8259C32.7314 20.9038 32.9026 21.0181 33.0467 21.1623C33.1908 21.3064 33.3052 21.4776 33.3831 21.6659C33.461 21.8543 33.5011 22.0562 33.501 22.26Z"
                  stroke="#231F20"
                  stroke-miterlimit="10"
                  stroke-linecap="round"
                  stroke-linejoin="round"
                />
                <path
                  d="M15.925 22.359H28.084"
                  stroke="#231F20"
                  stroke-miterlimit="10"
                  stroke-linecap="round"
                  stroke-linejoin="round"
                />
                <path
                  d="M21.534 12.502H34.907C35.0719 12.5023 35.23 12.5679 35.3465 12.6845C35.4631 12.8011 35.5287 12.9591 35.529 13.124V15.664C35.5287 15.8289 35.4631 15.987 35.3465 16.1036C35.23 16.2201 35.0719 16.2858 34.907 16.286H13.136C12.7817 16.285 12.4423 16.1438 12.1918 15.8933C11.9413 15.6428 11.8001 15.3033 11.799 14.949V9.57002C11.8003 8.92623 12.0569 8.30923 12.5124 7.85428C12.9679 7.39933 13.5852 7.14355 14.229 7.14302H18.448L21.679 1.53402C21.7722 1.37134 21.9068 1.23618 22.069 1.14223C22.2313 1.04828 22.4155 0.998879 22.603 0.999024H32.588C32.7278 0.999809 32.8661 1.02814 32.995 1.0824C33.1238 1.13666 33.2407 1.21579 33.339 1.31525C33.4372 1.41472 33.5149 1.53257 33.5676 1.66208C33.6203 1.79159 33.6469 1.93021 33.646 2.07002V12.508"
                  stroke="#231F20"
                  stroke-miterlimit="10"
                  stroke-linecap="round"
                  stroke-linejoin="round"
                />
              </svg>