<svg width="36" height="37" viewBox="0 0 36 37" fill="none" xmlns="http://www.w3.org/2000/svg">
<g id="construction-03">
<path id="Path 238" d="M22.609 14.295V9.308H20.209C20.0349 8.72255 19.8003 8.15683 19.509 7.62L21.209 5.926L17.677 2.398L15.983 4.098C15.4479 3.80311 14.8818 3.56835 14.295 3.398V1H9.308V3.4C8.72255 3.57407 8.15683 3.80867 7.62 4.1L5.926 2.4L2.398 5.932L4.098 7.626C3.80458 8.16183 3.56989 8.72777 3.398 9.314H1V14.3H3.4C3.57407 14.8855 3.80867 15.4512 4.1 15.988L2.404 17.68L5.932 21.208L7.626 19.508C8.16233 19.8004 8.72816 20.035 9.314 20.208V22.608H14.3V20.208C14.8855 20.0339 15.4512 19.7993 15.988 19.508L17.682 21.208L21.211 17.68L19.511 15.986C19.8034 15.4497 20.038 14.8838 20.211 14.298H22.611L22.609 14.295ZM11.801 16.695C10.834 16.695 9.88881 16.4083 9.08482 15.8711C8.28083 15.3338 7.65419 14.5703 7.28415 13.6769C6.91412 12.7836 6.8173 11.8006 7.00594 10.8522C7.19458 9.90383 7.66022 9.03269 8.34396 8.34896C9.02769 7.66522 9.89883 7.19958 10.8472 7.01094C11.7956 6.8223 12.7786 6.91912 13.6719 7.28915C14.5653 7.65919 15.3288 8.28583 15.8661 9.08982C16.4033 9.89381 16.69 10.839 16.69 11.806C16.6884 13.1016 16.1728 14.3437 15.2564 15.2595C14.34 16.1754 13.0976 16.6902 11.802 16.691L11.801 16.695Z" stroke="#231F20" stroke-miterlimit="10" stroke-linecap="round" stroke-linejoin="round"/>
<path id="Path 239" d="M34.972 29.342V25.514H33.132C33.0002 25.064 32.8194 24.6297 32.593 24.219L33.9 22.919L31.2 20.219L29.9 21.526C29.4893 21.2996 29.0551 21.1189 28.605 20.987V19.142H24.776V20.982C24.326 21.1139 23.8917 21.2946 23.481 21.521L22.181 20.214L19.481 22.914L20.788 24.214C20.5616 24.6247 20.3808 25.059 20.249 25.509H18.41V29.342H20.25C20.3818 29.7921 20.5626 30.2263 20.789 30.637L19.482 31.937L22.182 34.637L23.482 33.33C23.8927 33.5564 24.327 33.7372 24.777 33.869V35.709H28.61V33.869C29.0601 33.7372 29.4943 33.5564 29.905 33.33L31.205 34.637L33.905 31.937L32.598 30.637C32.8244 30.2263 33.0052 29.7921 33.137 29.342H34.972ZM26.694 31.182C25.9533 31.182 25.2292 30.9624 24.6133 30.551C23.9973 30.1396 23.5172 29.5547 23.2335 28.8705C22.9499 28.1862 22.8755 27.4332 23.0197 26.7067C23.1639 25.9801 23.5203 25.3127 24.0438 24.7886C24.5673 24.2646 25.2344 23.9075 25.9607 23.7625C26.6871 23.6175 27.4402 23.6911 28.1248 23.974C28.8093 24.2569 29.3946 24.7365 29.8067 25.352C30.2188 25.9675 30.4392 26.6913 30.44 27.432C30.4401 27.924 30.3433 28.4112 30.1551 28.8657C29.9669 29.3203 29.691 29.7333 29.3431 30.0811C28.9952 30.429 28.5822 30.7049 28.1277 30.8932C27.6731 31.0814 27.186 31.1782 26.694 31.178V31.182Z" stroke="#231F20" stroke-miterlimit="10" stroke-linecap="round" stroke-linejoin="round"/>
<path id="Path 240" d="M15.081 32.479C15.081 32.479 10.464 32.418 8.098 29.879" stroke="#231F20" stroke-miterlimit="10" stroke-linecap="round" stroke-linejoin="round"/>
<path id="Path 241" d="M6.02299 31.178V27.426L9.454 27.614" stroke="#231F20" stroke-miterlimit="10" stroke-linecap="round" stroke-linejoin="round"/>
<path id="Path 242" d="M26.791 3.75299C26.791 3.75299 30.791 6.05899 31.614 9.43499" stroke="#231F20" stroke-miterlimit="10" stroke-linecap="round" stroke-linejoin="round"/>
<path id="Path 243" d="M34.058 9.30798L32.231 12.582L29.331 10.742" stroke="#231F20" stroke-miterlimit="10" stroke-linecap="round" stroke-linejoin="round"/>
</g>
</svg>
