<svg xmlns="http://www.w3.org/2000/svg" width="23.127" height="34.69" viewBox="0 0 23.127 34.69">
  <path id="currency_rupee_FILL0_wght400_GRAD0_opsz24" d="M254.888-805.31,241.927-818.8v-3.854h6.745a6.385,6.385,0,0,0,4.409-1.662,6.789,6.789,0,0,0,2.24-4.12H240v-3.854h14.743a6.957,6.957,0,0,0-2.433-2.77,6.376,6.376,0,0,0-3.638-1.084H240V-840h23.127v3.854h-6.263a11.555,11.555,0,0,1,1.2,1.783,8.986,8.986,0,0,1,.819,2.072h4.24v3.854h-3.9a10.386,10.386,0,0,1-3.373,6.866,10.186,10.186,0,0,1-7.179,2.77h-1.4l12.961,13.491Z" transform="translate(-240 840)" fill="#282828"/>
</svg>
