<svg width="14" height="20" viewBox="0 0 14 20" fill="none" xmlns="http://www.w3.org/2000/svg">
<path d="M8.58299 20L7.565 18.941L1.11 12.222V10H5C5.93848 10.0164 6.84781 9.67374 7.54201 9.04199C8.24111 8.42893 8.69912 7.58699 8.834 6.66699H0V4.44501H8.5C8.18575 3.79545 7.7021 3.24267 7.10001 2.84497C6.47984 2.42796 5.74727 2.20993 5 2.21997H0V0H13.333V2.22198H9.722C9.98484 2.54229 10.2172 2.88647 10.416 3.25C10.6222 3.62689 10.7808 4.02794 10.888 4.44397H13.332V6.66602H11.082C10.9611 8.1846 10.2659 9.60001 9.138 10.624C8.02072 11.6782 6.53483 12.2526 4.99899 12.224H4.19299L11.667 20H8.58299Z" fill="#282828"/>
</svg>
