<svg width="26" height="30" viewBox="0 0 26 30" fill="none" xmlns="http://www.w3.org/2000/svg">
<path d="M19.341 12.1C19.3397 13.4293 18.9211 14.7247 18.1442 15.8034C17.3674 16.882 16.2714 17.6896 15.011 18.112V19.077C15.0137 19.4089 15.1323 19.7293 15.3464 19.983C15.5604 20.2366 15.8563 20.4075 16.183 20.466C18.648 20.916 24.757 22.679 24.964 29.499H1.03699C1.03699 22.972 7.23699 21.037 9.68099 20.506C9.99688 20.4387 10.2801 20.2651 10.4834 20.0141C10.6867 19.7631 10.7978 19.45 10.798 19.127V18.041C9.59376 17.5952 8.55332 16.7942 7.81439 15.744C7.07546 14.6938 6.6729 13.444 6.65999 12.16C6.66111 10.8408 7.06865 9.55404 7.82713 8.47473C8.58562 7.39542 9.65822 6.57601 10.899 6.12799C10.899 6.12799 15.289 5.087 16.557 8.381L16.81 6.28099C16.81 6.28499 19.341 7.947 19.341 12.1Z" stroke="white" stroke-miterlimit="10" stroke-linecap="round" stroke-linejoin="round"/>
<path d="M6.91299 13.868C6.96996 14.3552 7.20352 14.8047 7.56947 15.1314C7.93543 15.4581 8.40842 15.6394 8.89899 15.641H10.899" stroke="white" stroke-miterlimit="10" stroke-linecap="round" stroke-linejoin="round"/>
<path d="M11.768 16.435H12.132C12.3625 16.435 12.5835 16.3434 12.7465 16.1804C12.9094 16.0175 13.001 15.7964 13.001 15.566C13.001 15.3355 12.9094 15.1145 12.7465 14.9515C12.5835 14.7885 12.3625 14.697 12.132 14.697H11.768C11.5375 14.697 11.3165 14.7885 11.1535 14.9515C10.9905 15.1145 10.899 15.3355 10.899 15.566C10.899 15.7964 10.9905 16.0175 11.1535 16.1804C11.3165 16.3434 11.5375 16.435 11.768 16.435Z" stroke="white" stroke-miterlimit="10" stroke-linecap="round" stroke-linejoin="round"/>
<path d="M6.64499 15.031H5.02299C4.58361 15.0307 4.1623 14.8561 3.85161 14.5454C3.54092 14.2347 3.36625 13.8134 3.36599 13.374V10.428C3.36625 9.98861 3.54092 9.5673 3.85161 9.25661C4.1623 8.94592 4.58361 8.77126 5.02299 8.771H6.64499V15.031Z" stroke="white" stroke-miterlimit="10" stroke-linecap="round" stroke-linejoin="round"/>
<path d="M9.97398 20.406C10.8363 21.05 11.8837 21.398 12.96 21.398C14.0363 21.398 15.0837 21.05 15.946 20.406" stroke="white" stroke-miterlimit="10" stroke-linecap="round" stroke-linejoin="round"/>
<path d="M6.65999 12.16C6.65499 12.15 6.64999 12.13 6.64499 12.12" stroke="white" stroke-miterlimit="10" stroke-linecap="round" stroke-linejoin="round"/>
<path d="M19.341 10.231C19.275 10.494 19.23 10.64 19.23 10.64" stroke="white" stroke-miterlimit="10" stroke-linecap="round" stroke-linejoin="round"/>
<path d="M5.75599 8.77599C5.68999 5.41599 8.59699 3.46099 12.997 3.53699C13.8702 3.59692 14.7325 3.31456 15.4011 2.74972C16.0697 2.18488 16.4922 1.38194 16.579 0.510986C19.671 2.19299 19.838 6.64899 19.59 8.78099" stroke="white" stroke-miterlimit="10" stroke-linecap="round" stroke-linejoin="round"/>
<path d="M19.341 15.031H20.963C21.4024 15.0307 21.8237 14.8561 22.1344 14.5454C22.4451 14.2347 22.6197 13.8134 22.62 13.374V10.428C22.6197 9.98861 22.4451 9.5673 22.1344 9.25661C21.8237 8.94592 21.4024 8.77126 20.963 8.771H19.341V15.031Z" stroke="white" stroke-miterlimit="10" stroke-linecap="round" stroke-linejoin="round"/>
<path d="M16.014 2.08599C14.8965 1.70043 13.72 1.51394 12.538 1.53499H12.543C4.28799 1.53499 4.72198 8.83499 4.72198 8.83499" stroke="white" stroke-miterlimit="10" stroke-linecap="round" stroke-linejoin="round"/>
<path d="M19.452 4.992C20.0704 6.15606 20.3832 7.45806 20.361 8.776" stroke="white" stroke-miterlimit="10" stroke-linecap="round" stroke-linejoin="round"/>
<path d="M12.945 21.386V29.5" stroke="white" stroke-miterlimit="10" stroke-linecap="round" stroke-linejoin="round"/>
</svg>
