<svg width="60" height="60" viewBox="0 0 60 60" fill="none" xmlns="http://www.w3.org/2000/svg">
<path d="M50 0.5H10C4.75329 0.5 0.5 4.75329 0.5 10V50C0.5 55.2467 4.75329 59.5 10 59.5H50C55.2467 59.5 59.5 55.2467 59.5 50V10C59.5 4.75329 55.2467 0.5 50 0.5Z" stroke="#282828"/>
<path d="M45 5H15C9.47715 5 5 9.47715 5 15V45C5 50.5228 9.47715 55 15 55H45C50.5228 55 55 50.5228 55 45V15C55 9.47715 50.5228 5 45 5Z" fill="#E8A437"/>
<path d="M36.341 27.1C36.3397 28.4293 35.9211 29.7247 35.1442 30.8034C34.3674 31.882 33.2714 32.6896 32.011 33.112V34.077C32.0137 34.4089 32.1323 34.7293 32.3464 34.983C32.5604 35.2366 32.8563 35.4075 33.183 35.466C35.648 35.916 41.757 37.679 41.964 44.499H18.037C18.037 37.972 24.237 36.037 26.681 35.506C26.9969 35.4387 27.2801 35.2651 27.4834 35.0141C27.6867 34.7631 27.7978 34.45 27.798 34.127V33.041C26.5938 32.5952 25.5533 31.7942 24.8144 30.744C24.0755 29.6938 23.6729 28.444 23.66 27.16C23.6611 25.8408 24.0686 24.554 24.8271 23.4747C25.5856 22.3954 26.6582 21.576 27.899 21.128C27.899 21.128 32.289 20.087 33.557 23.381L33.81 21.281C33.81 21.285 36.341 22.947 36.341 27.1Z" stroke="white" stroke-miterlimit="10" stroke-linecap="round" stroke-linejoin="round"/>
<path d="M23.913 28.868C23.97 29.3552 24.2035 29.8047 24.5695 30.1314C24.9354 30.4581 25.4084 30.6394 25.899 30.641H27.899" stroke="white" stroke-miterlimit="10" stroke-linecap="round" stroke-linejoin="round"/>
<path d="M28.768 31.435H29.132C29.3625 31.435 29.5835 31.3434 29.7465 31.1804C29.9094 31.0175 30.001 30.7964 30.001 30.566C30.001 30.3355 29.9094 30.1145 29.7465 29.9515C29.5835 29.7885 29.3625 29.697 29.132 29.697H28.768C28.5375 29.697 28.3165 29.7885 28.1535 29.9515C27.9905 30.1145 27.899 30.3355 27.899 30.566C27.899 30.7964 27.9905 31.0175 28.1535 31.1804C28.3165 31.3434 28.5375 31.435 28.768 31.435Z" stroke="white" stroke-miterlimit="10" stroke-linecap="round" stroke-linejoin="round"/>
<path d="M23.645 30.031H22.023C21.5836 30.0307 21.1623 29.8561 20.8516 29.5454C20.5409 29.2347 20.3663 28.8134 20.366 28.374V25.428C20.3663 24.9886 20.5409 24.5673 20.8516 24.2566C21.1623 23.9459 21.5836 23.7713 22.023 23.771H23.645V30.031Z" stroke="white" stroke-miterlimit="10" stroke-linecap="round" stroke-linejoin="round"/>
<path d="M26.974 35.406C27.8363 36.05 28.8837 36.398 29.96 36.398C31.0363 36.398 32.0837 36.05 32.946 35.406" stroke="white" stroke-miterlimit="10" stroke-linecap="round" stroke-linejoin="round"/>
<path d="M23.66 27.16C23.655 27.15 23.65 27.13 23.645 27.12" stroke="white" stroke-miterlimit="10" stroke-linecap="round" stroke-linejoin="round"/>
<path d="M36.341 25.231C36.275 25.494 36.23 25.64 36.23 25.64" stroke="white" stroke-miterlimit="10" stroke-linecap="round" stroke-linejoin="round"/>
<path d="M22.756 23.776C22.69 20.416 25.597 18.461 29.997 18.537C30.8702 18.5969 31.7325 18.3146 32.4011 17.7497C33.0697 17.1849 33.4922 16.3819 33.579 15.511C36.671 17.193 36.838 21.649 36.59 23.781" stroke="white" stroke-miterlimit="10" stroke-linecap="round" stroke-linejoin="round"/>
<path d="M36.341 30.031H37.963C38.4024 30.0307 38.8237 29.8561 39.1344 29.5454C39.4451 29.2347 39.6197 28.8134 39.62 28.374V25.428C39.6197 24.9886 39.4451 24.5673 39.1344 24.2566C38.8237 23.9459 38.4024 23.7713 37.963 23.771H36.341V30.031Z" stroke="white" stroke-miterlimit="10" stroke-linecap="round" stroke-linejoin="round"/>
<path d="M33.014 17.086C31.8965 16.7004 30.72 16.5139 29.538 16.535H29.543C21.288 16.535 21.722 23.835 21.722 23.835" stroke="white" stroke-miterlimit="10" stroke-linecap="round" stroke-linejoin="round"/>
<path d="M36.452 19.992C37.0704 21.1561 37.3832 22.4581 37.361 23.776" stroke="white" stroke-miterlimit="10" stroke-linecap="round" stroke-linejoin="round"/>
<path d="M29.945 36.386V44.5" stroke="white" stroke-miterlimit="10" stroke-linecap="round" stroke-linejoin="round"/>
</svg>
