<svg xmlns="http://www.w3.org/2000/svg" width="65" height="39.999" viewBox="0 0 65 39.999">
  <g id="Group_614" data-name="Group 614" transform="translate(-1436 -1176.001)">
    <g id="Group_613" data-name="Group 613" transform="translate(-25 9)">
      <g id="Subtraction_1" data-name="Subtraction 1" transform="translate(9119 1541)" fill="#fff">
        <path d="M -7603.97216796875 -347.4996032714844 L -7646.029296875 -347.4996032714844 C -7646.34228515625 -348.971923828125 -7646.5009765625 -350.4834899902344 -7646.5009765625 -351.9990844726562 C -7646.5009765625 -357.7420043945312 -7644.26416015625 -363.1412048339844 -7640.203125 -367.2021484375 C -7636.14208984375 -371.2628479003906 -7630.7431640625 -373.4991455078125 -7625.0009765625 -373.4991455078125 C -7619.25732421875 -373.4991455078125 -7613.8583984375 -371.2628479003906 -7609.7978515625 -367.2021789550781 C -7605.73681640625 -363.1416015625 -7603.50048828125 -357.7423706054688 -7603.50048828125 -351.9990844726562 C -7603.50048828125 -350.4822387695312 -7603.6591796875 -348.9705505371094 -7603.97216796875 -347.4996032714844 Z" stroke="none"/>
        <path d="M -7604.380859375 -347.9996032714844 C -7604.12841796875 -349.3111572265625 -7604.00048828125 -350.6528930664062 -7604.00048828125 -351.9990844726562 C -7604.00048828125 -357.6088256835938 -7606.18505859375 -362.8824768066406 -7610.1513671875 -366.8486633300781 C -7614.1171875 -370.8148498535156 -7619.39111328125 -372.9991455078125 -7625.0009765625 -372.9991455078125 C -7630.60986328125 -372.9991455078125 -7635.88330078125 -370.8148498535156 -7639.849609375 -366.8486022949219 C -7643.81640625 -362.882080078125 -7646.0009765625 -357.6084289550781 -7646.0009765625 -351.9990844726562 C -7646.0009765625 -350.6539916992188 -7645.873046875 -349.3121948242188 -7645.62060546875 -347.9996032714844 L -7604.380859375 -347.9996032714844 M -7603.5712890625 -346.9996032714844 L -7603.572265625 -346.9996032714844 L -7603.5712890625 -346.9996032714844 Z M -7603.5712890625 -346.9996032714844 L -7646.43017578125 -346.9996032714844 C -7646.80908203125 -348.6309814453125 -7647.0009765625 -350.3127746582031 -7647.0009765625 -351.9990844726562 C -7647.0009765625 -357.87548828125 -7644.71240234375 -363.4002685546875 -7640.556640625 -367.5557250976562 C -7636.4013671875 -371.7108154296875 -7630.876953125 -373.9991455078125 -7625.0009765625 -373.9991455078125 C -7619.1240234375 -373.9991455078125 -7613.59912109375 -371.7108154296875 -7609.4443359375 -367.5557250976562 C -7605.2890625 -363.4008483886719 -7603.00048828125 -357.8760681152344 -7603.00048828125 -351.9990844726562 C -7603.00048828125 -350.3118286132812 -7603.1923828125 -348.6300048828125 -7603.5712890625 -347.0003662109375 L -7603.5712890625 -346.9996032714844 Z" stroke="none" fill="#000"/>
      </g>
      <g id="Rectangle_657" data-name="Rectangle 657" transform="translate(1461 1179)" fill="#fff" stroke="#000" stroke-width="1">
        <rect width="65" height="21" rx="3" stroke="none"/>
        <rect x="0.5" y="0.5" width="64" height="20" rx="2.5" fill="none"/>
      </g>
      <g id="Group_609" data-name="Group 609" transform="translate(0 1)">
        <circle id="Ellipse_545" data-name="Ellipse 545" cx="1.5" cy="1.5" r="1.5" transform="translate(1465 1182)"/>
        <circle id="Ellipse_546" data-name="Ellipse 546" cx="1.5" cy="1.5" r="1.5" transform="translate(1465 1187)"/>
        <circle id="Ellipse_547" data-name="Ellipse 547" cx="1.5" cy="1.5" r="1.5" transform="translate(1465 1192)"/>
      </g>
      <g id="Group_610" data-name="Group 610" transform="translate(54 1)">
        <circle id="Ellipse_545-2" data-name="Ellipse 545" cx="1.5" cy="1.5" r="1.5" transform="translate(1465 1182)"/>
        <circle id="Ellipse_546-2" data-name="Ellipse 546" cx="1.5" cy="1.5" r="1.5" transform="translate(1465 1187)"/>
        <circle id="Ellipse_547-2" data-name="Ellipse 547" cx="1.5" cy="1.5" r="1.5" transform="translate(1465 1192)"/>
      </g>
      <g id="Group_611" data-name="Group 611" transform="translate(50 1)">
        <circle id="Ellipse_545-3" data-name="Ellipse 545" cx="1.5" cy="1.5" r="1.5" transform="translate(1465 1182)"/>
        <circle id="Ellipse_546-3" data-name="Ellipse 546" cx="1.5" cy="1.5" r="1.5" transform="translate(1465 1187)"/>
        <circle id="Ellipse_547-3" data-name="Ellipse 547" cx="1.5" cy="1.5" r="1.5" transform="translate(1465 1192)"/>
      </g>
      <g id="Group_612" data-name="Group 612" transform="translate(4 1)">
        <circle id="Ellipse_545-4" data-name="Ellipse 545" cx="1.5" cy="1.5" r="1.5" transform="translate(1465 1182)"/>
        <circle id="Ellipse_546-4" data-name="Ellipse 546" cx="1.5" cy="1.5" r="1.5" transform="translate(1465 1187)"/>
        <circle id="Ellipse_547-4" data-name="Ellipse 547" cx="1.5" cy="1.5" r="1.5" transform="translate(1465 1192)"/>
      </g>
      <g id="Ellipse_548" data-name="Ellipse 548" transform="translate(1476 1171)" fill="#fff" stroke="#000" stroke-width="1">
        <circle cx="18" cy="18" r="18" stroke="none"/>
        <circle cx="18" cy="18" r="17.5" fill="none"/>
      </g>
      <rect id="Rectangle_658" data-name="Rectangle 658" width="8" height="8" rx="2" transform="translate(1490 1185)"/>
    </g>
  </g>
</svg>
