<svg xmlns="http://www.w3.org/2000/svg" width="50.517" height="46" viewBox="0 0 50.517 46">
  <g id="Gas_Station-03" data-name="Gas Station-03" transform="translate(-1.3 -4.1)">
    <path id="Path_5777" data-name="Path 5777" d="M36.7,45.3H16.5A14.684,14.684,0,0,1,1.8,30.6h0A14.684,14.684,0,0,1,16.5,15.9H36.617a14.684,14.684,0,0,1,14.7,14.7h0A14.614,14.614,0,0,1,36.7,45.3Z" transform="translate(0 -2.021)" fill="none" stroke="#231f20" stroke-linecap="round" stroke-linejoin="round" stroke-miterlimit="10" stroke-width="1"/>
    <path id="Path_5778" data-name="Path 5778" d="M20.52,51.575V57.9H15.1V51" transform="translate(-2.379 -8.298)" fill="none" stroke="#231f20" stroke-linecap="round" stroke-linejoin="round" stroke-miterlimit="10" stroke-width="1"/>
    <path id="Path_5779" data-name="Path 5779" d="M47.72,51v6.9H42.3V51.575" transform="translate(-7.243 -8.298)" fill="none" stroke="#231f20" stroke-linecap="round" stroke-linejoin="round" stroke-miterlimit="10" stroke-width="1"/>
    <line id="Line_3155" data-name="Line 3155" y1="5.994" transform="translate(13.378 8.213)" fill="none" stroke="#231f20" stroke-linecap="round" stroke-linejoin="round" stroke-miterlimit="10" stroke-width="1"/>
    <line id="Line_3156" data-name="Line 3156" y1="5.584" transform="translate(21.836 8.213)" fill="none" stroke="#231f20" stroke-linecap="round" stroke-linejoin="round" stroke-miterlimit="10" stroke-width="1"/>
    <path id="Path_5780" data-name="Path 5780" d="M24.414,8.213H14.807A1.823,1.823,0,0,1,13,6.407h0A1.823,1.823,0,0,1,14.807,4.6H24.5A1.823,1.823,0,0,1,26.3,6.407h0A1.954,1.954,0,0,1,24.414,8.213Z" transform="translate(-2.003)" fill="none" stroke="#231f20" stroke-linecap="round" stroke-linejoin="round" stroke-miterlimit="10" stroke-width="1"/>
    <circle id="Ellipse_556" data-name="Ellipse 556" cx="5.584" cy="5.584" r="5.584" transform="translate(9.683 23.733)" fill="none" stroke="#231f20" stroke-linecap="round" stroke-linejoin="round" stroke-miterlimit="10" stroke-width="1"/>
    <circle id="Ellipse_557" data-name="Ellipse 557" cx="1.642" cy="1.642" r="1.642" transform="translate(13.625 27.675)" fill="none" stroke="#231f20" stroke-linecap="round" stroke-linejoin="round" stroke-miterlimit="10" stroke-width="1"/>
    <line id="Line_3157" data-name="Line 3157" y2="3.942" transform="translate(15.267 23.733)" fill="none" stroke="#231f20" stroke-linecap="round" stroke-linejoin="round" stroke-miterlimit="10" stroke-width="1"/>
    <line id="Line_3158" data-name="Line 3158" x2="2.546" y2="3.038" transform="translate(16.499 30.467)" fill="none" stroke="#231f20" stroke-linecap="round" stroke-linejoin="round" stroke-miterlimit="10" stroke-width="1"/>
    <line id="Line_3159" data-name="Line 3159" x1="2.546" y2="3.038" transform="translate(11.49 30.467)" fill="none" stroke="#231f20" stroke-linecap="round" stroke-linejoin="round" stroke-miterlimit="10" stroke-width="1"/>
    <line id="Line_3160" data-name="Line 3160" y1="17.983" transform="translate(30.705 20.038)" fill="none" stroke="#231f20" stroke-linecap="round" stroke-linejoin="round" stroke-miterlimit="10" stroke-width="1"/>
    <line id="Line_3161" data-name="Line 3161" y2="17.983" transform="translate(38.013 20.038)" fill="none" stroke="#231f20" stroke-linecap="round" stroke-linejoin="round" stroke-miterlimit="10" stroke-width="1"/>
    <line id="Line_3162" data-name="Line 3162" x2="7.308" transform="translate(30.705 22.091)" fill="none" stroke="#231f20" stroke-linecap="round" stroke-linejoin="round" stroke-miterlimit="10" stroke-width="1"/>
    <path id="Path_5781" data-name="Path 5781" d="M37,34.3h0Z" transform="translate(-6.295 -5.312)" fill="none" stroke="#231f20" stroke-linecap="round" stroke-linejoin="round" stroke-miterlimit="10" stroke-width="1"/>
    <path id="Path_5782" data-name="Path 5782" d="M37,30.1h0Z" transform="translate(-6.295 -4.56)" fill="none" stroke="#231f20" stroke-linecap="round" stroke-linejoin="round" stroke-miterlimit="10" stroke-width="1"/>
    <path id="Path_5783" data-name="Path 5783" d="M37,38.6h0Z" transform="translate(-6.295 -6.081)" fill="none" stroke="#231f20" stroke-linecap="round" stroke-linejoin="round" stroke-miterlimit="10" stroke-width="1"/>
    <line id="Line_3163" data-name="Line 3163" x2="7.308" transform="translate(30.705 35.968)" fill="none" stroke="#231f20" stroke-linecap="round" stroke-linejoin="round" stroke-miterlimit="10" stroke-width="1"/>
    <line id="Line_3164" data-name="Line 3164" x2="44.753" transform="translate(4.263 49.6)" fill="none" stroke="#231f20" stroke-linecap="round" stroke-linejoin="round" stroke-miterlimit="10" stroke-width="1"/>
  </g>
</svg>
