<svg xmlns="http://www.w3.org/2000/svg" width="33" height="33" viewBox="0 0 33 33">
  <g id="Group_778" data-name="Group 778" transform="translate(-190 -2013)">
    <circle id="Ellipse_442" data-name="Ellipse 442" cx="16.5" cy="16.5" r="16.5" transform="translate(190 2013)" fill="#e8a437"/>
    <g id="Group_526" data-name="Group 526" transform="translate(-243.731 -65.476)">
      <circle id="Ellipse_443" data-name="Ellipse 443" cx="2.06" cy="2.06" r="2.06" transform="translate(437 2098.356)" fill="none" stroke="#000" stroke-linecap="round" stroke-linejoin="round" stroke-width="1"/>
      <circle id="Ellipse_445" data-name="Ellipse 445" cx="2.06" cy="2.06" r="2.06" transform="translate(446.415 2098.356)" fill="none" stroke="#000" stroke-linecap="round" stroke-linejoin="round" stroke-width="1"/>
      <path id="Path_4745" data-name="Path 4745" d="M13.958,19H4.5" transform="translate(434.602 2083.476)" fill="none" stroke="#000" stroke-linecap="round" stroke-linejoin="round" stroke-width="1"/>
      <path id="Path_4747" data-name="Path 4747" d="M4.5,15h9.458" transform="translate(434.602 2083.272)" fill="none" stroke="#000" stroke-linecap="round" stroke-linejoin="round" stroke-width="1"/>
      <path id="Path_4749" data-name="Path 4749" d="M8.5,12.254V7h2.1a3.152,3.152,0,0,1,3.153,3.153v5.254" transform="translate(434.805 2082.865)" fill="none" stroke="#000" stroke-linecap="round" stroke-linejoin="round" stroke-width="1"/>
      <path id="Path_4751" data-name="Path 4751" d="M5.5,15.153v-2.1A1.051,1.051,0,0,1,6.551,12h7.356" transform="translate(434.652 2083.12)" fill="none" stroke="#000" stroke-linecap="round" stroke-linejoin="round" stroke-width="1"/>
      <path id="Path_4753" data-name="Path 4753" d="M26.951,13.084,21.782,5,13.5,13.282" transform="translate(435.059 2078.851)" fill="none" stroke="#000" stroke-linecap="round" stroke-linejoin="round" stroke-width="1"/>
      <path id="Path_4755" data-name="Path 4755" d="M24.4,9.88A4.966,4.966,0,1,1,17.38,16.9L24.4,9.88Z" transform="translate(437.606 2082.055)" fill="none" stroke="#000" stroke-linecap="round" stroke-linejoin="round" stroke-width="1" fill-rule="evenodd"/>
    </g>
  </g>
</svg>
