<svg xmlns="http://www.w3.org/2000/svg" width="46.235" height="63.641" viewBox="0 0 46.235 63.641">
  <g id="contact_us-30" data-name="contact us-30" transform="translate(-13.96 -6.08)">
    <path id="Path_4310" data-name="Path 4310" d="M29.861,8.287A22.126,22.126,0,0,1,59.2,29.185c0,19-22.118,39.537-22.118,39.537S14.96,47.759,14.96,29.185a21.815,21.815,0,0,1,2.271-9.761" transform="translate(0 0)" fill="none" stroke="#231f20" stroke-linecap="round" stroke-linejoin="round" stroke-miterlimit="10" stroke-width="2"/>
    <path id="Path_4311" data-name="Path 4311" d="M20.875,20.61A15.763,15.763,0,0,0,40.526,40.261" transform="translate(1.561 4.032)" fill="none" stroke="#231f20" stroke-linecap="round" stroke-linejoin="round" stroke-miterlimit="10" stroke-width="2"/>
    <path id="Path_4312" data-name="Path 4312" d="M23.97,16.348a15.736,15.736,0,0,1,26.6,11.409,16.048,16.048,0,0,1-.13,2.1" transform="translate(2.685 1.466)" fill="none" stroke="#231f20" stroke-linecap="round" stroke-linejoin="round" stroke-miterlimit="10" stroke-width="2"/>
  </g>
</svg>
