<svg id="Group_255" data-name="Group 255" xmlns="http://www.w3.org/2000/svg" xmlns:xlink="http://www.w3.org/1999/xlink" width="63.365" height="52.677" viewBox="0 0 63.365 52.677">
  <defs>
    <clipPath id="clip-path">
      <rect id="Rectangle_338" data-name="Rectangle 338" width="63.365" height="52.677" fill="none"/>
    </clipPath>
  </defs>
  <g id="Group_254" data-name="Group 254" transform="translate(0 0)" clip-path="url(#clip-path)">
    <rect id="Rectangle_335" data-name="Rectangle 335" width="61.44" height="36.672" transform="translate(0.963 15.042)" fill="none" stroke="#565656" stroke-linecap="round" stroke-linejoin="round" stroke-width="1"/>
    <line id="Line_1584" data-name="Line 1584" x1="61.44" transform="translate(0.963 18.294)" fill="none" stroke="#565656" stroke-linecap="round" stroke-linejoin="round" stroke-width="1"/>
    <path id="Path_3023" data-name="Path 3023" d="M29.938,39.394V23.736c0-6.741-9.316-10.425-9.316-10.425s-9.314,3.684-9.314,10.425V39.394" transform="translate(10.467 12.32)" fill="#e8a437" stroke="#565656" stroke-linecap="round" stroke-linejoin="round" stroke-width="1"/>
    <path id="Path_3024" data-name="Path 3024" d="M12.376,35.634V24.671c0-4.722-4.764-7.3-4.764-7.3s-4.762,2.576-4.762,7.3V35.634" transform="translate(2.638 16.08)" fill="#e8a437" stroke="#565656" stroke-linecap="round" stroke-linejoin="round" stroke-width="1"/>
    <path id="Path_3025" data-name="Path 3025" d="M36.138,40.828V11.761h-27V40.828" transform="translate(8.454 10.886)" fill="none" stroke="#565656" stroke-linecap="round" stroke-linejoin="round" stroke-width="1"/>
    <line id="Line_1585" data-name="Line 1585" y1="4.354" transform="translate(31.09 18.293)" fill="none" stroke="#565656" stroke-linecap="round" stroke-linejoin="round" stroke-width="1"/>
    <line id="Line_1586" data-name="Line 1586" y1="4.354" transform="translate(25.449 18.293)" fill="none" stroke="#565656" stroke-linecap="round" stroke-linejoin="round" stroke-width="1"/>
    <line id="Line_1587" data-name="Line 1587" y1="4.354" transform="translate(19.809 18.293)" fill="none" stroke="#565656" stroke-linecap="round" stroke-linejoin="round" stroke-width="1"/>
    <line id="Line_1588" data-name="Line 1588" y1="4.354" transform="translate(14.169 18.293)" fill="none" stroke="#565656" stroke-linecap="round" stroke-linejoin="round" stroke-width="1"/>
    <line id="Line_1589" data-name="Line 1589" y1="4.354" transform="translate(8.529 18.293)" fill="none" stroke="#565656" stroke-linecap="round" stroke-linejoin="round" stroke-width="1"/>
    <line id="Line_1590" data-name="Line 1590" y1="4.354" transform="translate(36.73 18.293)" fill="none" stroke="#565656" stroke-linecap="round" stroke-linejoin="round" stroke-width="1"/>
    <line id="Line_1591" data-name="Line 1591" y1="4.354" transform="translate(42.37 18.293)" fill="none" stroke="#565656" stroke-linecap="round" stroke-linejoin="round" stroke-width="1"/>
    <line id="Line_1592" data-name="Line 1592" y1="4.354" transform="translate(48.011 18.293)" fill="none" stroke="#565656" stroke-linecap="round" stroke-linejoin="round" stroke-width="1"/>
    <line id="Line_1593" data-name="Line 1593" y1="4.354" transform="translate(53.651 18.293)" fill="none" stroke="#565656" stroke-linecap="round" stroke-linejoin="round" stroke-width="1"/>
    <rect id="Rectangle_336" data-name="Rectangle 336" width="9.502" height="24.339" transform="translate(5.486 27.375)" fill="none" stroke="#565656" stroke-linecap="round" stroke-linejoin="round" stroke-width="1"/>
    <line id="Line_1594" data-name="Line 1594" x1="9.502" transform="translate(5.487 30.628)" fill="none" stroke="#565656" stroke-linecap="round" stroke-linejoin="round" stroke-width="1"/>
    <path id="Path_3026" data-name="Path 3026" d="M24.5,35.634V24.671c0-4.722,4.764-7.3,4.764-7.3s4.762,2.576,4.762,7.3V35.634" transform="translate(22.671 16.08)" fill="#e8a437" stroke="#565656" stroke-linecap="round" stroke-linejoin="round" stroke-width="1"/>
    <rect id="Rectangle_337" data-name="Rectangle 337" width="9.502" height="24.339" transform="translate(47.191 27.375)" fill="none" stroke="#565656" stroke-linecap="round" stroke-linejoin="round" stroke-width="1"/>
    <line id="Line_1595" data-name="Line 1595" x2="9.502" transform="translate(47.19 30.628)" fill="none" stroke="#565656" stroke-linecap="round" stroke-linejoin="round" stroke-width="1"/>
    <line id="Line_1596" data-name="Line 1596" y1="14.26" transform="translate(21.774 22.647)" fill="none" stroke="#565656" stroke-linecap="round" stroke-linejoin="round" stroke-width="1"/>
    <line id="Line_1597" data-name="Line 1597" y1="14.26" transform="translate(40.405 22.647)" fill="none" stroke="#565656" stroke-linecap="round" stroke-linejoin="round" stroke-width="1"/>
    <path id="Path_3027" data-name="Path 3027" d="M.5,9.36V6.138H61.94V9.36" transform="translate(0.463 5.682)" fill="none" stroke="#565656" stroke-linecap="round" stroke-linejoin="round" stroke-width="1"/>
    <circle id="Ellipse_242" data-name="Ellipse 242" cx="4.065" cy="4.065" r="4.065" transform="translate(27.025 2.55)" fill="#e8a437" stroke="#565656" stroke-linecap="round" stroke-linejoin="round" stroke-width="1"/>
    <path id="Path_3028" data-name="Path 3028" d="M10.288,14.578V.5H32.849V14.578" transform="translate(9.521 0.464)" fill="none" stroke="#565656" stroke-linecap="round" stroke-linejoin="round" stroke-width="1"/>
    <path id="Path_3029" data-name="Path 3029" d="M6.7,12V3.28h6.911" transform="translate(6.2 3.037)" fill="none" stroke="#565656" stroke-linecap="round" stroke-linejoin="round" stroke-width="1"/>
    <path id="Path_3030" data-name="Path 3030" d="M28.915,12V3.28H22" transform="translate(20.366 3.037)" fill="none" stroke="#565656" stroke-linecap="round" stroke-linejoin="round" stroke-width="1"/>
  </g>
</svg>
