<svg width="29" height="29" viewBox="0 0 29 29" fill="none" xmlns="http://www.w3.org/2000/svg">
<g id="mining-02">
<path id="Ellipse 1" d="M23.298 15.8589C24.0879 10.961 20.7577 6.3502 15.8598 5.56034C10.9619 4.77048 6.35105 8.10069 5.56119 12.9986C4.77132 17.8965 8.10154 22.5073 12.9994 23.2972C17.8973 24.087 22.5082 20.7568 23.298 15.8589Z" stroke="#231F20" stroke-miterlimit="10" stroke-linecap="round" stroke-linejoin="round"/>
<path id="Ellipse 2" d="M17.912 14.7167C18.0711 12.7823 16.6319 11.0852 14.6976 10.9261C12.7632 10.7671 11.0661 12.2062 10.9071 14.1405C10.748 16.0749 12.1871 17.772 14.1214 17.9311C16.0558 18.0902 17.7529 16.651 17.912 14.7167Z" stroke="#231F20" stroke-width="1.00037" stroke-miterlimit="10" stroke-linecap="round" stroke-linejoin="round"/>
<path id="Path 10" d="M12.422 5.675L15.333 1L16.439 5.675" stroke="#231F20" stroke-miterlimit="10" stroke-linecap="round" stroke-linejoin="round"/>
<path id="Path 11" d="M16.439 23.188L13.528 27.863L12.422 23.188" stroke="#231F20" stroke-miterlimit="10" stroke-linecap="round" stroke-linejoin="round"/>
<path id="Path 12" d="M23.188 12.422L27.863 15.333L23.188 16.439" stroke="#231F20" stroke-miterlimit="10" stroke-linecap="round" stroke-linejoin="round"/>
<path id="Path 13" d="M5.675 16.439L1 13.528L5.675 12.422" stroke="#231F20" stroke-miterlimit="10" stroke-linecap="round" stroke-linejoin="round"/>
<path id="Path 14" d="M19.207 6.81299L24.566 5.56799L22.044 9.64999" stroke="#231F20" stroke-miterlimit="10" stroke-linecap="round" stroke-linejoin="round"/>
<path id="Path 15" d="M9.65401 22.044L4.29501 23.287L6.81701 19.205" stroke="#231F20" stroke-miterlimit="10" stroke-linecap="round" stroke-linejoin="round"/>
<path id="Path 16" d="M22.044 19.207L23.287 24.566L19.207 22.044" stroke="#231F20" stroke-miterlimit="10" stroke-linecap="round" stroke-linejoin="round"/>
<path id="Path 17" d="M6.813 9.65398L5.573 4.29498L9.655 6.81698" stroke="#231F20" stroke-miterlimit="10" stroke-linecap="round" stroke-linejoin="round"/>
</g>
</svg>
