<svg xmlns="http://www.w3.org/2000/svg" width="32.265" height="51.508" viewBox="0 0 32.265 51.508">
  <g id="mining-16" transform="translate(0.662 0.5)">
    <path id="Path_114" data-name="Path 114" d="M2.84,18.913,5.1,29.82l5.065-1.363L7.719,18.472V18.46" transform="translate(-0.517 -1.222)" fill="none" stroke="#282828" stroke-linecap="round" stroke-linejoin="round" stroke-miterlimit="10" stroke-width="1"/>
    <path id="Path_117" data-name="Path 117" d="M19.951,8.74c-.012.012-.012.012-.023.012L7.29,19.415" transform="translate(0.202 -2.793)" fill="none" stroke="#282828" stroke-linecap="round" stroke-linejoin="round" stroke-miterlimit="10" stroke-width="1"/>
    <line id="Line_44" data-name="Line 44" x1="12.603" y2="10.698" transform="translate(4.53 2.102)" fill="none" stroke="#282828" stroke-linecap="round" stroke-linejoin="round" stroke-miterlimit="10" stroke-width="1"/>
    <path id="Path_120" data-name="Path 120" d="M12.982,1.542,15.033,10.7l9.045,8.17S4.43,28.675.138,13.527a3.77,3.77,0,0,1-.079-1.685L2,0Z" transform="matrix(0.914, -0.407, 0.407, 0.914, 0, 30.252)" fill="none" stroke="#282828" stroke-linecap="round" stroke-linejoin="round" stroke-miterlimit="10" stroke-width="1"/>
    <path id="Path_122" data-name="Path 122" d="M21.451,6.605A2.985,2.985,0,1,1,18.465,3.62,2.984,2.984,0,0,1,21.451,6.605Z" transform="translate(1.525 -3.62)" fill="none" stroke="#282828" stroke-linecap="round" stroke-linejoin="round" stroke-miterlimit="10" stroke-width="1"/>
    <ellipse id="Ellipse_6" data-name="Ellipse 6" cx="2.985" cy="2.985" rx="2.985" ry="2.985" transform="translate(1.638 12.789)" fill="none" stroke="#282828" stroke-linecap="round" stroke-linejoin="round" stroke-miterlimit="10" stroke-width="1"/>
  </g>
</svg>
