<svg xmlns="http://www.w3.org/2000/svg" width="56.39" height="57.95" viewBox="0 0 56.39 57.95">
  <g id="contact_us-27" data-name="contact us-27" transform="translate(-3.81 -3.03)">
    <path id="Path_4287" data-name="Path 4287" d="M23.74,45.62V56.59a3.389,3.389,0,0,0,3.4,3.39H55.81a3.386,3.386,0,0,0,3.39-3.39V7.42a3.393,3.393,0,0,0-3.39-3.39H27.14a3.4,3.4,0,0,0-3.4,3.39v7.77" fill="none" stroke="#231f20" stroke-linecap="round" stroke-linejoin="round" stroke-miterlimit="10" stroke-width="2"/>
    <path id="Path_4288" data-name="Path 4288" d="M27.87,45.62V56.13h27.2V7.88H27.87v7.31" fill="none" stroke="#231f20" stroke-linecap="round" stroke-linejoin="round" stroke-miterlimit="10" stroke-width="2"/>
    <path id="Path_4289" data-name="Path 4289" d="M48.98,20.05v20.7a4.859,4.859,0,0,1-4.86,4.86H18.52l-4.01,8.7-4.15-8.7H9.67a4.859,4.859,0,0,1-4.86-4.86V20.05a4.859,4.859,0,0,1,4.86-4.86H44.12A4.859,4.859,0,0,1,48.98,20.05Z" fill="none" stroke="#231f20" stroke-linecap="round" stroke-linejoin="round" stroke-miterlimit="10" stroke-width="2"/>
    <path id="Path_4290" data-name="Path 4290" d="M29.78,39.04a3.6,3.6,0,0,0,3.89.79l4.06-1.65a1.559,1.559,0,0,0,.52-2.54l-2.53-2.53a1.546,1.546,0,0,0-1.84-.27l-1.72.92a3.275,3.275,0,0,1-3.88-.57l-4.9-4.9a3.275,3.275,0,0,1-.57-3.88l.92-1.72a1.549,1.549,0,0,0-.27-1.84l-2.53-2.53a1.55,1.55,0,0,0-2.54.52L16.74,22.9a3.6,3.6,0,0,0,.79,3.89Z" fill="none" stroke="#231f20" stroke-linecap="round" stroke-linejoin="round" stroke-miterlimit="10" stroke-width="2"/>
  </g>
</svg>
