<svg xmlns="http://www.w3.org/2000/svg" width="58.893" height="41.066" viewBox="0 0 58.893 41.066">
  <g id="Group_389" data-name="Group 389" transform="translate(0.5 0.5)">
    <rect id="Rectangle_243" data-name="Rectangle 243" width="23.544" height="30.379" transform="translate(18.037 9.494)" fill="none" stroke="#282828" stroke-linecap="round" stroke-linejoin="round" stroke-miterlimit="10" stroke-width="1"/>
    <path id="Path_1973" data-name="Path 1973" d="M50.794,23.743a12.025,12.025,0,0,0,4.462.854h5.411V48.616H55.256a12.025,12.025,0,0,0-4.462.854" transform="translate(-8.755 -11.924)" fill="none" stroke="#282828" stroke-linecap="round" stroke-linejoin="round" stroke-miterlimit="10" stroke-width="1"/>
    <path id="Path_1974" data-name="Path 1974" d="M20.129,52.079,11.3,46.1V27.681L20.129,21.7" transform="translate(-2.091 -12.207)" fill="none" stroke="#282828" stroke-linecap="round" stroke-linejoin="round" stroke-miterlimit="10" stroke-width="1"/>
    <line id="Line_1151" data-name="Line 1151" x1="4.367" transform="translate(4.842 20.221)" fill="none" stroke="#282828" stroke-linecap="round" stroke-linejoin="round" stroke-miterlimit="10" stroke-width="1"/>
    <line id="Line_1152" data-name="Line 1152" x1="4.367" transform="translate(4.842 29.145)" fill="none" stroke="#282828" stroke-linecap="round" stroke-linejoin="round" stroke-miterlimit="10" stroke-width="1"/>
    <path id="Path_1975" data-name="Path 1975" d="M5.018,46.148H3.024A1.46,1.46,0,0,1,1.6,44.724v-15A1.46,1.46,0,0,1,3.024,28.3H5.018a1.46,1.46,0,0,1,1.424,1.424v15A1.46,1.46,0,0,1,5.018,46.148Z" transform="translate(-1.6 -12.541)" fill="none" stroke="#282828" stroke-linecap="round" stroke-linejoin="round" stroke-miterlimit="10" stroke-width="1"/>
    <path id="Path_1979" data-name="Path 1979" d="M36.473,16.257H28.878A2.31,2.31,0,0,1,26.6,13.978h0A2.31,2.31,0,0,1,28.878,11.7h7.595a2.31,2.31,0,0,1,2.278,2.278h0A2.31,2.31,0,0,1,36.473,16.257Z" transform="translate(-2.867 -11.7)" fill="none" stroke="#282828" stroke-linecap="round" stroke-linejoin="round" stroke-miterlimit="10" stroke-width="1"/>
    <line id="Line_1159" data-name="Line 1159" y1="4.937" transform="translate(26.771 4.557)" fill="none" stroke="#282828" stroke-linecap="round" stroke-linejoin="round" stroke-miterlimit="10" stroke-width="1"/>
    <line id="Line_1160" data-name="Line 1160" y1="4.937" transform="translate(32.847 4.557)" fill="none" stroke="#282828" stroke-linecap="round" stroke-linejoin="round" stroke-miterlimit="10" stroke-width="1"/>
    <path id="Path_2287" data-name="Path 2287" d="M53.1,53.51h3.133a2.8,2.8,0,0,0,2.848-2.848V41.548A2.8,2.8,0,0,0,56.233,38.7H53.1" transform="translate(-1.188 -21.625)" fill="none" stroke="#282828" stroke-linecap="round" stroke-linejoin="round" stroke-miterlimit="10" stroke-width="1"/>
    <path id="Path_2224" data-name="Path 2224" d="M34.159,42.424l2.943.38a.378.378,0,0,1,.19.665l-9.778,9.873a.4.4,0,0,1-.665-.38l2.373-6.171a.32.32,0,0,0-.285-.475l-2.753-.665a.42.42,0,0,1-.19-.665l9.493-9.493a.4.4,0,0,1,.665.38l-2.278,6.171C33.779,42.139,33.969,42.424,34.159,42.424Z" transform="translate(-2.162 -19.734)" fill="none" stroke="#282828" stroke-linecap="round" stroke-linejoin="round" stroke-miterlimit="10" stroke-width="1"/>
  </g>
</svg>
