<svg xmlns="http://www.w3.org/2000/svg" width="33" height="33" viewBox="0 0 33 33">
  <g id="Group_772" data-name="Group 772" transform="translate(-190 -1428)">
    <circle id="Ellipse_429" data-name="Ellipse 429" cx="16.5" cy="16.5" r="16.5" transform="translate(190 1428)" fill="#e8a437"/>
    <path id="currency_rupee_FILL0_wght400_GRAD0_opsz24" d="M246.045-825.914l-.717-.746-4.546-4.732v-1.565h2.739a2.593,2.593,0,0,0,1.79-.675,2.757,2.757,0,0,0,.91-1.673H240v-1.565h5.987a2.825,2.825,0,0,0-.988-1.125,2.589,2.589,0,0,0-1.477-.44H240V-840h9.391v1.565h-2.543a4.692,4.692,0,0,1,.489.724,3.649,3.649,0,0,1,.333.841h1.722v1.565h-1.585a4.217,4.217,0,0,1-1.369,2.788,4.136,4.136,0,0,1-2.915,1.125h-.567l5.263,5.478Z" transform="translate(-38.195 2278.599)" fill="#282828"/>
  </g>
</svg>
