<svg xmlns="http://www.w3.org/2000/svg" width="35.424" height="34.467" viewBox="0 0 35.424 34.467">
  <g id="sale_and_discount-23" data-name="sale and discount-23" transform="translate(-2.859 -3.871)">
    <path id="Path_4138" data-name="Path 4138" d="M13.41,39.661,4.485,29.847a3.094,3.094,0,0,1,.21-4.369l13.535-12.3a3.1,3.1,0,0,1,2.479-.78l8.409,1.1A3.089,3.089,0,0,1,31.8,16.391l.486,8.739a3.088,3.088,0,0,1-1.008,2.461l-13.5,12.28A3.087,3.087,0,0,1,13.41,39.661Z" transform="translate(0 -3.157)" fill="none" stroke="#000" stroke-linecap="round" stroke-linejoin="round" stroke-miterlimit="10" stroke-width="1.2"/>
    <circle id="Ellipse_332" data-name="Ellipse 332" cx="1.963" cy="1.963" r="1.963" transform="translate(25.612 12.7)" fill="none" stroke="#000" stroke-linecap="round" stroke-linejoin="round" stroke-miterlimit="10" stroke-width="1.2"/>
    <circle id="Ellipse_333" data-name="Ellipse 333" cx="7.941" cy="7.941" r="7.941" transform="translate(9.725 15.731)" fill="none" stroke="#000" stroke-linecap="round" stroke-linejoin="round" stroke-miterlimit="10" stroke-width="1.2"/>
    <g id="Group_412" data-name="Group 412" transform="translate(13.572 19.633)">
      <line id="Line_470" data-name="Line 470" x1="8.397" y2="1.212" transform="translate(0 3.336)" fill="none" stroke="#000" stroke-linecap="round" stroke-linejoin="round" stroke-miterlimit="10" stroke-width="1.2"/>
      <path id="Path_4139" data-name="Path 4139" d="M29.165,31.537a1.037,1.037,0,1,1,.072-1.464A1.036,1.036,0,0,1,29.165,31.537Z" transform="translate(-23.067 -29.732)" fill="none" stroke="#000" stroke-linecap="round" stroke-linejoin="round" stroke-miterlimit="10" stroke-width="1.2"/>
      <circle id="Ellipse_334" data-name="Ellipse 334" cx="1.038" cy="1.038" r="1.038" transform="translate(1.747 5.995)" fill="none" stroke="#000" stroke-linecap="round" stroke-linejoin="round" stroke-miterlimit="10" stroke-width="1.2"/>
    </g>
    <path id="Path_4140" data-name="Path 4140" d="M43.483,14.662S42.943,4,49.473,4.489c5.99.456,5.372,9.375-1.386,15.407" transform="translate(-15.908 0)" fill="none" stroke="#000" stroke-linecap="round" stroke-linejoin="round" stroke-miterlimit="10" stroke-width="1.2"/>
  </g>
</svg>
