<svg id="Group_375" data-name="Group 375" xmlns="http://www.w3.org/2000/svg" width="23.76" height="23.066" viewBox="0 0 23.76 23.066">
  <g id="Group_370" data-name="Group 370">
    <path id="Path_4029" data-name="Path 4029" d="M6.982,24.818a.29.29,0,0,1-.286-.338l1.343-7.989-5.7-5.656a.29.29,0,0,1,.162-.493L10.361,9.18l3.515-7.265a.29.29,0,0,1,.522,0L17.913,9.18l7.856,1.161a.29.29,0,0,1,.162.493l-5.7,5.656,1.343,7.989a.29.29,0,0,1-.424.3l-7.01-3.768L7.119,24.783A.29.29,0,0,1,6.982,24.818ZM3.163,10.831l5.392,5.354a.29.29,0,0,1,.082.254l-1.27,7.553,6.642-3.562a.29.29,0,0,1,.274,0l6.625,3.561-1.27-7.553a.29.29,0,0,1,.082-.254l5.392-5.354-7.435-1.1a.29.29,0,0,1-.219-.161l-3.32-6.863-3.32,6.863a.29.29,0,0,1-.219.161Z" transform="translate(-2.257 -1.752)" fill="#e8a437"/>
  </g>
  <g id="Group_371" data-name="Group 371" transform="translate(4.057 4.398)">
    <path id="Path_4031" data-name="Path 4031" d="M10.262,15.2a.751.751,0,0,0-.7,0L5.89,17.128a.751.751,0,0,1-1.09-.792l.7-4.09a.751.751,0,0,0-.216-.665l-2.975-2.9A.751.751,0,0,1,2.727,7.4l4.1-.595A.751.751,0,0,0,7.4,6.4L9.233,2.678a.751.751,0,0,1,1.347,0L12.416,6.4a.751.751,0,0,0,.566.411l4.1.595A.751.751,0,0,1,17.5,8.686l-2.975,2.9a.751.751,0,0,0-.216.665l.7,4.088a.751.751,0,0,1-1.09.791Z" transform="translate(-2.083 -2.26)" fill="#e8a437" fill-rule="evenodd"/>
  </g>
</svg>
