<svg xmlns="http://www.w3.org/2000/svg" width="20.833" height="19.915" viewBox="0 0 20.833 19.915">
  <g id="Group_460" data-name="Group 460" transform="translate(-2.083 -2.26)">
    <path id="Path_4697" data-name="Path 4697" d="M12.974,19.487a1,1,0,0,0-.932,0l-4.89,2.571A1,1,0,0,1,5.7,21l.934-5.445a1,1,0,0,0-.288-.886L2.387,10.816A1,1,0,0,1,2.941,9.11L8.4,8.318a1,1,0,0,0,.753-.547L11.6,2.817a1,1,0,0,1,1.793,0l2.445,4.954a1,1,0,0,0,.753.547l5.464.792a1,1,0,0,1,.554,1.706l-3.961,3.855a1,1,0,0,0-.288.886L19.3,21a1,1,0,0,1-1.452,1.054Z" fill="#e8a437" fill-rule="evenodd"/>
    <path id="Path_4698" data-name="Path 4698" d="M12.974,19.487a1,1,0,0,0-.932,0l-4.89,2.571A1,1,0,0,1,5.7,21l.934-5.445a1,1,0,0,0-.288-.886L2.387,10.816A1,1,0,0,1,2.941,9.11L8.4,8.318a1,1,0,0,0,.753-.547L11.6,2.817a1,1,0,0,1,1.793,0l2.445,4.954a1,1,0,0,0,.753.547l5.464.792a1,1,0,0,1,.554,1.706l-3.961,3.855a1,1,0,0,0-.288.886L19.3,21a1,1,0,0,1-1.452,1.054Z" fill="#e8a437" fill-rule="evenodd"/>
  </g>
</svg>
