<svg id="Group_469" data-name="Group 469" xmlns="http://www.w3.org/2000/svg" width="26.493" height="22.979" viewBox="0 0 26.493 22.979">
  <g id="Rectangle_290" data-name="Rectangle 290" transform="translate(0 0.04)" fill="none" stroke-linecap="round" stroke-linejoin="round">
    <path d="M1.75,12.75h6a1,1,0,0,0,1-1v-10a1,1,0,0,0-1-1h-6a1,1,0,0,0-1,1v10a1,1,0,0,0,1,1Z" stroke="none"/>
    <path d="M 7.75 0 L 1.75 0 C 1.50876247882843 0 1.27876877784729 0.04906558990478516 1.069474220275879 0.1377410888671875 C 0.8601796627044678 0.2264175415039062 0.6715843677520752 0.3547029495239258 0.51314377784729 0.5131435394287109 C 0.3547031283378601 0.6715841293334961 0.2264171838760376 0.8601799011230469 0.1377413868904114 1.069474220275879 C 0.04906558990478516 1.278768539428711 0 1.508762359619141 0 1.75 L 0 11.75 C 0 11.99123764038086 0.04906558990478516 12.22123146057129 0.1377413868904114 12.43052577972412 C 0.2264171838760376 12.63982009887695 0.3547030985355377 12.8284158706665 0.5131437182426453 12.98685646057129 C 0.6715843677520752 13.14529705047607 0.8601796627044678 13.27358245849609 1.069474220275879 13.36225891113281 C 1.27876877784729 13.45093441009521 1.50876247882843 13.5 1.75 13.5 L 7.75 13.5 C 7.991237640380859 13.5 8.221231460571289 13.45093441009521 8.430525779724121 13.36225891113281 C 8.639820098876953 13.27358245849609 8.828415870666504 13.14529705047607 8.986856460571289 12.98685646057129 C 9.145297050476074 12.8284158706665 9.273582458496094 12.63982009887695 9.362258911132812 12.43052577972412 C 9.450934410095215 12.22123146057129 9.5 11.99123764038086 9.5 11.75 L 9.5 1.75 C 9.5 1.508762359619141 9.450934410095215 1.278768539428711 9.362258911132812 1.069474220275879 C 9.273582458496094 0.8601799011230469 9.145297050476074 0.6715841293334961 8.986856460571289 0.5131435394287109 C 8.828415870666504 0.3547029495239258 8.639820098876953 0.2264175415039062 8.430525779724121 0.1377410888671875 C 8.221231460571289 0.04906558990478516 7.991237640380859 0 7.75 0 Z M 1.75 12 C 1.715537548065186 12 1.682681202888489 11.99299049377441 1.652781963348389 11.98032283782959 C 1.622882843017578 11.96765518188477 1.595940589904785 11.94932842254639 1.573306202888489 11.9266939163208 C 1.550671815872192 11.90405941009521 1.532345294952393 11.87711715698242 1.519677400588989 11.84721755981445 C 1.507009387016296 11.8173189163208 1.5 11.78446292877197 1.5 11.75 L 1.5 1.75 C 1.5 1.715538024902344 1.507009387016296 1.682682037353516 1.519677400588989 1.652782440185547 C 1.532345294952393 1.622882843017578 1.550671815872192 1.595941543579102 1.573306202888489 1.573307037353516 C 1.595940589904785 1.55067253112793 1.622882843017578 1.532345771789551 1.652781963348389 1.519678115844727 C 1.682681202888489 1.507009506225586 1.715537548065186 1.5 1.75 1.5 L 7.75 1.5 C 7.784462451934814 1.5 7.817318916320801 1.507009506225586 7.847218036651611 1.519678115844727 C 7.877117156982422 1.532345771789551 7.904059410095215 1.55067253112793 7.926693916320801 1.573307037353516 C 7.949328422546387 1.595941543579102 7.967654705047607 1.622882843017578 7.98032283782959 1.652782440185547 C 7.992990493774414 1.682682037353516 8 1.715538024902344 8 1.75 L 8 11.75 C 8 11.78446292877197 7.992990493774414 11.8173189163208 7.98032283782959 11.84721755981445 C 7.967654705047607 11.87711715698242 7.949328422546387 11.90405941009521 7.926693916320801 11.9266939163208 C 7.904059410095215 11.94932842254639 7.877117156982422 11.96765518188477 7.847218036651611 11.98032283782959 C 7.817318916320801 11.99299049377441 7.784462451934814 12 7.75 12 L 1.75 12 Z" stroke="none" fill="#4b465c"/>
  </g>
  <g id="Path_4700" data-name="Path 4700" transform="translate(7.507)" fill="none" stroke-linecap="round" stroke-linejoin="round">
    <path d="M.75,3.252a2.5,2.5,0,0,1,2.5-2.5h9.4a2.5,2.5,0,0,1,2.4,1.784l3,7.507a5.282,5.282,0,0,1,.14.576,3.111,3.111,0,0,1,.052.576,2.01,2.01,0,0,1-.079.553,1.611,1.611,0,0,1-.253.507,2.17,2.17,0,0,1-.423.426,2.719,2.719,0,0,1-.531.317,3.007,3.007,0,0,1-.591.2,2.787,2.787,0,0,1-.6.068h-5v6.173a2.752,2.752,0,0,1-5.042,1.526L.75,13.261V3.252Z" stroke="none"/>
    <path d="M 12.65057754516602 0.00022125244140625 L 3.252227783203125 0.00022125244140625 C 2.803905487060547 0.00022125244140625 2.376480102539062 0.09140396118164062 1.987523078918457 0.2561988830566406 C 1.598566055297852 0.4209938049316406 1.248077392578125 0.6594009399414062 0.9536290168762207 0.9538497924804688 C 0.6591806411743164 1.248298645019531 0.4207730293273926 1.598785400390625 0.2559776306152344 1.987743377685547 C 0.09118175506591797 2.376701354980469 -2.384185791015625e-06 2.804126739501953 -2.384185791015625e-06 3.252450942993164 L -2.384185791015625e-06 13.2613410949707 C -2.384185791015625e-06 13.29739570617676 0.002595901489257812 13.33325958251953 0.007715702056884766 13.36866760253906 C 0.01283550262451172 13.40407562255859 0.02047586441040039 13.43902778625488 0.03055953979492188 13.4732608795166 C 0.04064369201660156 13.50749397277832 0.05317068099975586 13.54100799560547 0.06806278228759766 13.57353591918945 C 0.08295536041259766 13.60606575012207 0.100212574005127 13.63761138916016 0.1197576522827148 13.66790962219238 L 5.086677551269531 21.36725997924805 C 5.087202072143555 21.36807250976562 5.087727546691895 21.3688850402832 5.088254928588867 21.36969375610352 C 5.088781356811523 21.37050437927246 5.089308738708496 21.37131309509277 5.089838027954102 21.37211990356445 C 5.090368270874023 21.37292861938477 5.090899467468262 21.37373352050781 5.091432571411133 21.37453842163086 C 5.091965675354004 21.37534332275391 5.092500686645508 21.37614822387695 5.093037605285645 21.37694931030273 C 5.255842208862305 21.62096214294434 5.44602108001709 21.84039115905762 5.658042907714844 22.03227806091309 C 5.870063781738281 22.22416305541992 6.103926658630371 22.38850784301758 6.354101181030273 22.5223503112793 C 6.604274749755859 22.65619087219238 6.870759963989258 22.75953102111816 7.148025512695312 22.82941055297852 C 7.425290107727051 22.89929008483887 7.713335037231445 22.93571090698242 8.006627082824707 22.93571090698242 C 8.092499732971191 22.93571090698242 8.178239822387695 22.93254661560059 8.263699531555176 22.92624092102051 C 8.349159240722656 22.91993522644043 8.43433952331543 22.91048812866211 8.51909065246582 22.89791870117188 C 8.603841781616211 22.88535118103027 8.688164710998535 22.86966323852539 8.77191162109375 22.85087585449219 C 8.855658531188965 22.83208847045898 8.93882942199707 22.81020355224609 9.02127742767334 22.78524017333984 C 9.393096923828125 22.67267990112305 9.734443664550781 22.50410461425781 10.03732395172119 22.29027557373047 C 10.3402042388916 22.07644653320312 10.60461807250977 21.81736755371094 10.82257652282715 21.5237979888916 C 11.04053497314453 21.23022842407227 11.21203422546387 20.90217208862305 11.32908630371094 20.55039215087891 C 11.44613647460938 20.19861030578613 11.50873756408691 19.82310485839844 11.50889778137207 19.43463897705078 L 11.50889778137207 14.0113410949707 L 15.76334762573242 14.0113410949707 C 16.033447265625 14.0113410949707 16.30348205566406 13.97914886474609 16.56582069396973 13.91840744018555 C 16.82815933227539 13.85766410827637 17.08280181884766 13.76837158203125 17.32211875915527 13.65416717529297 C 17.56143569946289 13.53996276855469 17.78542900085449 13.40084838867188 17.9864673614502 13.24046516418457 C 18.1875057220459 13.08008193969727 18.3655891418457 12.89842987060547 18.51308822631836 12.69915008544922 C 18.69070434570312 12.46044921875 18.80992317199707 12.21008110046387 18.8852424621582 11.95668029785156 C 18.96056365966797 11.70328140258789 18.99198532104492 11.44684791564941 18.9940071105957 11.19602203369141 C 18.99602890014648 10.9451961517334 18.96865081787109 10.69997596740723 18.92637252807617 10.46899795532227 C 18.88409423828125 10.23802185058594 18.8269157409668 10.02128601074219 18.76933670043945 9.827430725097656 C 18.76770210266113 9.821929931640625 18.76600456237793 9.816448211669922 18.76424407958984 9.810989379882812 C 18.76248550415039 9.805530548095703 18.76066207885742 9.800090789794922 18.75877952575684 9.794673919677734 C 18.75689697265625 9.789257049560547 18.75495147705078 9.78386116027832 18.75294303894043 9.778488159179688 C 18.75093460083008 9.773115158081055 18.74886703491211 9.767765045166016 18.74673652648926 9.762439727783203 L 15.75570869445801 2.284866333007812 C 15.64926910400391 1.942852020263672 15.49172973632812 1.629051208496094 15.29285430908203 1.350738525390625 C 15.09398078918457 1.072425842285156 14.8537712097168 0.8295974731445312 14.58199310302734 0.6295204162597656 C 14.31021308898926 0.429443359375 14.00686264038086 0.2721176147460938 13.68170547485352 0.1648101806640625 C 13.35654830932617 0.05750656127929688 13.00958442687988 0.00022125244140625 12.65057754516602 0.00022125244140625 Z M 1.499997615814209 13.04041290283203 L 1.499997615814209 3.252450942993164 C 1.499997615814209 3.010906219482422 1.549125671386719 2.780618667602539 1.637914657592773 2.571056365966797 C 1.726703643798828 2.361495971679688 1.855152606964111 2.172660827636719 2.013794898986816 2.014015197753906 C 2.172437191009521 1.855373382568359 2.361272811889648 1.726924896240234 2.570834159851074 1.638137817382812 C 2.7803955078125 1.549346923828125 3.010683059692383 1.500221252441406 3.252227783203125 1.500221252441406 L 12.65057754516602 1.500221252441406 C 12.84561920166016 1.500221252441406 13.03406524658203 1.531600952148438 13.21052169799805 1.590347290039062 C 13.38697814941406 1.649093627929688 13.55144309997559 1.735202789306641 13.69852447509766 1.84466552734375 C 13.84560585021973 1.954128265380859 13.97530364990234 2.086944580078125 14.08222579956055 2.239097595214844 C 14.18914794921875 2.391250610351562 14.27329254150391 2.562740325927734 14.32926750183105 2.74955940246582 C 14.33087158203125 2.754913330078125 14.33253479003906 2.760246276855469 14.33425521850586 2.765562057495117 C 14.33597755432129 2.770877838134766 14.33775901794434 2.776172637939453 14.339599609375 2.78144645690918 C 14.34144020080566 2.786720275878906 14.34333992004395 2.791975021362305 14.34529876708984 2.797206878662109 C 14.34725570678711 2.802440643310547 14.34927368164062 2.807651519775391 14.35134696960449 2.812839508056641 L 17.34083557128906 10.28656578063965 C 17.39345359802246 10.46740341186523 17.43226623535156 10.63322448730469 17.45725631713867 10.78511428833008 C 17.48224639892578 10.93700408935547 17.49341583251953 11.07496070861816 17.49074554443359 11.20006942749023 C 17.48807716369629 11.32518005371094 17.47157287597656 11.43744087219238 17.44121360778809 11.53793907165527 C 17.41085433959961 11.63843727111816 17.36664009094238 11.7271728515625 17.30855751037598 11.80523109436035 C 17.23272705078125 11.90767860412598 17.13526916503906 12.00303268432617 17.0224781036377 12.08843994140625 C 16.90968704223633 12.17384719848633 16.78156280517578 12.24930572509766 16.64439964294434 12.31195831298828 C 16.50723648071289 12.37461090087891 16.36103820800781 12.4244556427002 16.21209716796875 12.45863723754883 C 16.06315803527832 12.49282073974609 15.91147613525391 12.5113410949707 15.76334762573242 12.5113410949707 L 10.75889778137207 12.5113410949707 C 10.65534591674805 12.5113410949707 10.55669403076172 12.53232765197754 10.46696472167969 12.57027816772461 C 10.37723541259766 12.60823059082031 10.29643058776855 12.66314888000488 10.22856903076172 12.73101043701172 C 10.16070747375488 12.79887390136719 10.10578918457031 12.87968063354492 10.06783676147461 12.96940803527832 C 10.02988433837891 13.05913543701172 10.00889778137207 13.15778732299805 10.00889778137207 13.2613410949707 L 10.00889778137207 19.43432998657227 C 10.00880527496338 19.65633964538574 9.973013877868652 19.8709602355957 9.906091690063477 20.0720329284668 C 9.839170455932617 20.27310371398926 9.741119384765625 20.46062660217285 9.616507530212402 20.62844276428223 C 9.49189567565918 20.7962589263916 9.340721130371094 20.94436836242676 9.16755485534668 21.06661224365234 C 8.994388580322266 21.18885612487793 8.799229621887207 21.28523635864258 8.586647033691406 21.34959030151367 C 8.539459228515625 21.36387825012207 8.49187183380127 21.37640380859375 8.4439697265625 21.38715553283691 C 8.396066665649414 21.39790725708008 8.347848892211914 21.40688705444336 8.29940128326416 21.41408157348633 C 8.250953674316406 21.42127418518066 8.202274322509766 21.42668151855469 8.153450012207031 21.43029022216797 C 8.104625701904297 21.43389892578125 8.055656433105469 21.43571090698242 8.006627082824707 21.43571090698242 C 7.839395523071289 21.43571090698242 7.675146102905273 21.41499710083008 7.517017364501953 21.3752498626709 C 7.358888626098633 21.33550262451172 7.206880569458008 21.27672004699707 7.064128875732422 21.20058250427246 C 6.921377182006836 21.12444496154785 6.787882804870605 21.03095245361328 6.666782379150391 20.92178153991699 C 6.545681953430176 20.8126106262207 6.436975479125977 20.68776321411133 6.34380054473877 20.54891586303711 L 1.499997615814209 13.04041290283203 Z" stroke="none" fill="#4b465c"/>
  </g>
</svg>
